<?xml version="1.0" encoding="UTF-8"?>
<svg version="1.1" xmlns="http://www.w3.org/2000/svg" width="4500" height="4500">
<path d="M0 0 C59.73 0 119.46 0 181 0 C191.33060885 18.36552685 191.33060885 18.36552685 194.68359375 24.98828125 C195.25647377 26.1090934 195.25647377 26.1090934 195.84092712 27.25254822 C196.63766471 28.81198727 197.43302544 30.37213055 198.22698975 31.9329834 C200.30214646 36.01214739 202.38814462 40.0857672 204.47265625 44.16015625 C204.87476318 44.94679657 205.27687012 45.73343689 205.69116211 46.54391479 C208.91304891 52.84287791 212.18462806 59.11400907 215.49584961 65.36645508 C218.86358217 71.72723887 222.18394224 78.11214021 225.5 84.5 C229.29181874 91.80272137 233.0956867 99.09845296 236.9375 106.375 C241.61489944 115.23581609 246.22144211 124.13289646 250.82788086 133.03076172 C254.195952 139.53263523 257.58020584 146.02518973 261 152.5 C265.65778401 161.31873773 270.24302091 170.17455321 274.828125 179.03125 C278.19612542 185.53295516 281.58029083 192.02535064 285 198.5 C289.03875326 206.14670617 293.02422743 213.82037519 297 221.5 C301.41028884 230.01829282 305.84033482 238.52514906 310.31689453 247.00878906 C315.06495657 256.00979955 319.76443537 265.03611027 324.46777344 274.06054688 C326.97707908 278.87444744 329.48863837 283.6871718 332 288.5 C333.00001113 290.41666086 334.00001112 292.33332753 335 294.25 C335.495 295.19875 335.99 296.1475 336.5 297.125 C365 351.75 365 351.75 366.50048828 354.62597656 C367.49881616 356.53941125 368.49718844 358.45282277 369.49560547 360.36621094 C372.02155651 365.20713636 374.54669444 370.04848291 377.0703125 374.890625 C381.65518153 383.68596864 386.24613422 392.47772098 390.875 401.25 C395.57195566 410.15292698 400.19986205 419.09123767 404.82763672 428.03027344 C408.19577858 434.5323153 411.58012086 441.02502882 415 447.5 C419.65778401 456.31873773 424.24302091 465.17455321 428.828125 474.03125 C432.19612542 480.53295516 435.58029083 487.02535064 439 493.5 C443.03875326 501.14670617 447.02422743 508.82037519 451 516.5 C455.41028884 525.01829282 459.84033482 533.52514906 464.31689453 542.00878906 C469.06495657 551.00979955 473.76443537 560.03611027 478.46777344 569.06054688 C481.47428089 574.82828903 484.48376355 580.59447937 487.49291992 586.36083984 C490.03198861 591.2267318 492.56984901 596.09324729 495.10546875 600.9609375 C495.62173828 601.95158203 496.13800781 602.94222656 496.66992188 603.96289062 C497.6313065 605.80770977 498.59229347 607.65273624 499.55273438 609.49804688 C503.99509204 618.02050987 508.5028716 626.50542414 513 635 C513.33 425.45 513.66 215.9 514 0 C556.24 0 598.48 0 642 0 C642 64.56263543 642 64.56263543 641.96506079 87.7935007 C641.95962935 91.46925665 641.95468364 95.14501326 641.94966173 98.82076979 C641.94090307 105.18769715 641.93186815 111.55462407 641.92262459 117.92155075 C641.90888226 127.38816348 641.89561148 136.85477684 641.88242082 146.32139035 C641.86019334 162.26451805 641.83760794 178.20764521 641.81480408 194.15077209 C641.79229183 209.89087397 641.76994756 225.63097607 641.74781799 241.37107849 C641.74573847 242.85008176 641.74573847 242.85008176 641.74361694 244.35896389 C641.73657459 249.36825427 641.72953514 254.37754465 641.72249681 259.38683504 C641.67289714 294.68399724 641.62293538 329.98115893 641.57275391 365.27832031 C641.52406479 399.52636693 641.4755439 433.77441377 641.42724609 468.02246094 C641.42575204 469.08185139 641.42425798 470.14124185 641.42271865 471.23273505 C641.40771218 481.87350388 641.39270908 492.51427272 641.37770845 503.15504156 C641.34716207 524.8232097 641.31659322 546.49137781 641.28601074 568.1595459 C641.28460525 569.15537675 641.28319976 570.15120761 641.28175168 571.17721515 C641.23875133 601.64341212 641.19565596 632.10960896 641.15246582 662.57580566 C641.15124187 663.43920199 641.15001792 664.30259831 641.14875688 665.19215816 C641.0992303 700.12810552 641.04960244 735.06405274 641 770 C581.6 770 522.2 770 461 770 C456.38 761.09 451.76 752.18 447 743 C442.60052915 734.59088483 438.18668434 726.19360665 433.68359375 717.83984375 C432.45537998 715.56008392 431.22752829 713.280129 430 711 C429.68768433 710.4199118 429.37536865 709.83982361 429.05358887 709.24215698 C423.10527429 698.18040896 417.36085053 687.01863487 411.64227295 675.83679199 C407.24571365 667.24465897 402.80747013 658.69099977 398.125 650.25 C392.03470999 639.26943428 386.37249111 628.0734098 380.66851807 616.88928223 C375.89204253 607.52829717 371.1056439 598.18719062 366 589 C359.94552982 578.10547371 354.32980868 566.98978983 348.66796875 555.88818359 C343.89167606 546.52756573 339.10544458 537.18683196 334 528 C327.94552982 517.10547371 322.32980868 505.98978983 316.66796875 494.88818359 C311.89167606 485.52756573 307.10544458 476.18683196 302 467 C296.41998572 456.95921849 291.21820079 446.73168654 286 436.5 C278.14816972 421.09287791 278.14816972 421.09287791 269.9375 405.875 C264.52996054 396.13300113 259.44966873 386.23049997 254.375 376.3125 C253.95745453 375.49659393 253.53990906 374.68068787 253.10971069 373.84005737 C251.4809094 370.65696525 249.85224387 367.47380373 248.22389221 364.29048157 C242.83297234 353.75733191 237.31715668 343.29474702 231.703125 332.87890625 C230.46835868 330.5861482 229.23399857 328.29317136 228 326 C227.53084671 325.12850815 227.53084671 325.12850815 227.05221558 324.2394104 C221.10432936 313.1785921 215.36038542 302.01772542 209.64227295 290.83679199 C205.24571365 282.24465897 200.80747013 273.69099977 196.125 265.25 C190.03470999 254.26943428 184.37249111 243.0734098 178.66851807 231.88928223 C173.89203662 222.52828559 169.1054121 213.1873292 164 204 C157.49753383 192.29295327 151.45872912 180.34607532 145.37890625 168.41601562 C144.96762482 167.60972214 144.55634338 166.80342865 144.13259888 165.97270203 C143.37913191 164.49483287 142.62674184 163.01641364 141.87594604 161.53718567 C137.34303052 152.64155842 132.65126699 143.83740728 128 135 C127.67 345.21 127.34 555.42 127 772 C85.09 772 43.18 772 0 772 C0 517.24 0 262.48 0 0 Z " fill="#073B4F" transform="translate(1792,1864)"/>
<path d="M0 0 C8.31877927 0.75195398 16.4563222 2.32570582 24.6484375 3.90625 C26.15291746 4.19413312 27.65744508 4.48176723 29.16201782 4.76916504 C32.29739806 5.36883942 35.43231534 5.97085977 38.56689453 6.57470703 C42.5844083 7.34854054 46.60284872 8.11743023 50.62161827 8.88471222 C53.7205362 9.47675452 56.81905156 10.07088087 59.91743851 10.66569519 C61.39971454 10.95009486 62.88209267 11.2339629 64.36457443 11.51728821 C66.43013525 11.91247624 68.49516145 12.31034513 70.56005859 12.70898438 C71.73426361 12.93469116 72.90846863 13.16039795 74.11825562 13.39294434 C77 14 77 14 80 15 C79.73050675 17.33349453 79.45960519 19.66680926 79.1875 22 C79.10056885 22.74677002 79.0136377 23.49354004 78.92407227 24.26293945 C78.38650803 28.83894925 77.82344369 33.41079037 77.234375 37.98046875 C77.03678589 39.52250977 77.03678589 39.52250977 76.83520508 41.09570312 C76.5778861 43.09612523 76.31751022 45.0961575 76.0534668 47.09570312 C73.95260795 63.48101543 73.75818056 79.75118846 73.75 96.25 C73.74932526 97.47308868 73.74865051 98.69617737 73.74795532 99.95632935 C73.76531117 119.80995995 74.42677883 139.30795429 77 159 C77.08485657 159.65669678 77.16971313 160.31339355 77.25714111 160.98999023 C86.14306388 229.26325612 109.37890453 293.92254292 146.44702148 351.97583008 C198.55358006 433.66491643 226.91152537 523.93809191 253.10546875 740.27734375 C254.56051897 764.73450116 254.56051897 764.73450116 257.75 789 C257.91991455 789.97598145 258.0898291 790.95196289 258.26489258 791.95751953 C266.16003687 835.62371377 281.91330991 883.99227525 318.73828125 911.7578125 C321.74138068 913.82221858 324.69787267 915.47132986 328 917 C343.95610025 892.37217677 359.20196923 867.34102265 374 842 C374.57927246 841.00887207 375.15854492 840.01774414 375.75537109 838.99658203 C385.4474361 822.38347195 394.84235196 805.61825808 404.05334473 788.73510742 C404.96549667 787.06324054 405.87872337 785.39196017 406.79199219 783.72070312 C428.17933684 744.51660267 448.71981836 704.63523374 467.12231445 663.93896484 C468.06547627 661.85535117 469.01205651 659.77331094 469.95898438 657.69140625 C504.1888812 582.36691318 533.57106805 504.76765296 588 192 C587.98211426 191.07735352 587.96422852 190.15470703 587.94580078 189.20410156 C586.98637621 145.15460858 581.85117623 100.5449382 568.74047852 58.35473633 C568.49740967 57.55704834 568.25434082 56.75936035 568.00390625 55.9375 C567.67628296 54.89916016 567.67628296 54.89916016 567.34204102 53.83984375 C567 52 567 52 568 49 C570.77531433 47.8107605 570.77531433 47.8107605 574.53588867 46.65576172 C575.21890045 46.44235138 575.90191223 46.22894104 576.60562134 46.00906372 C578.8729061 45.30401157 581.14516514 44.61672108 583.41796875 43.9296875 C584.994299 43.44408427 586.57033007 42.95750887 588.14607239 42.47000122 C591.45524982 41.44892549 594.76675285 40.4359293 598.08032227 39.42919922 C602.31941286 38.14116629 606.55407485 36.83928154 610.78727245 35.53202629 C614.8292983 34.28455455 618.87358627 33.04449279 622.91796875 31.8046875 C623.68663961 31.56829433 624.45531048 31.33190117 625.2472744 31.08834457 C627.4360053 30.4166175 629.62628704 29.75022219 631.81713867 29.08544922 C633.06210617 28.70589081 634.30707367 28.3263324 635.58976746 27.93527222 C638.72390214 27.07572113 641.78636074 26.46566793 645 26 C669.55033901 103.2481363 674.14457811 185.46974244 551 678 C550.70691956 678.65792542 550.41383911 679.31585083 550.11187744 679.99371338 C540.20606486 702.22577246 529.7906817 724.18456541 519 746 C518.5040332 747.00289062 518.00806641 748.00578125 517.49707031 749.0390625 C514.13861592 755.82589624 510.77061543 762.60791995 507.39419556 769.38583374 C506.27682547 771.62926512 505.16055148 773.87324283 504.04550171 776.11782837 C497.07464516 790.13952037 489.84616654 803.97863849 482.27407837 817.68484497 C480.55432471 820.80984609 478.86797807 823.95135373 477.1875 827.09765625 C470.51006728 839.59542746 463.68662697 851.98619408 456.58789062 864.24951172 C454.88811716 867.19379953 453.20115949 870.14519559 451.515625 873.09765625 C438.15126412 896.46077666 424.12747021 919.40676582 409.77783203 942.17675781 C408.05399164 944.91425992 406.33737366 947.65619137 404.62109375 950.3984375 C391.43398224 971.38254598 377.42312877 991.84792388 363 1012 C337.06475737 1008.60613036 312.04362868 1002.60495694 289 990 C287.79842912 989.36670907 286.59660927 988.73389027 285.39453125 988.1015625 C253.57662742 971.01644531 230.61149402 941.7628919 213 911 C212.6292334 910.36835938 212.2584668 909.73671875 211.87646484 909.0859375 C184.31561966 862.05719737 174.75814916 804.9586351 171.42660522 751.36398315 C165.40002313 655.54863515 154.75927998 557.06168761 73.87939453 391.02148438 C55.39066599 361.29733467 39.50321591 330.73868376 27 298 C25.41627292 300.91735883 24.48205694 303.64573811 23.72583008 306.8737793 C23.4934967 307.85297333 23.26116333 308.83216736 23.02178955 309.84103394 C22.64942169 311.44146042 22.64942169 311.44146042 22.26953125 313.07421875 C21.71647573 315.40801789 21.16315945 317.74175525 20.60961914 320.07543945 C20.31765656 321.31347321 20.02569397 322.55150696 19.72488403 323.82705688 C4.44088718 388.49609784 -13.20727776 452.56667872 -33 516 C-33.29050232 516.93231445 -33.58100464 517.86462891 -33.88031006 518.82519531 C-59.04409048 599.51629735 -87.34560084 679.21846353 -121.03186035 756.76873779 C-121.98463505 758.96458854 -122.93386959 761.16193294 -123.88183594 763.35986328 C-134.72600847 788.49526014 -146.19108853 813.31129873 -158.09375 837.96484375 C-160.02696944 841.97020047 -161.94319608 845.98294842 -163.84375 850.00390625 C-169.20013863 861.32389682 -174.78147121 872.4736556 -180.68457031 883.51757812 C-182.08685495 886.1639089 -183.46397973 888.82220102 -184.8359375 891.484375 C-191.39827758 904.20923047 -198.26771572 916.71984166 -205.37646484 929.14697266 C-206.97037806 931.94794556 -208.54508256 934.75878035 -210.11328125 937.57421875 C-227.83579291 969.3416129 -247.27250122 1000.11150232 -268 1030 C-268.51481934 1030.74652832 -269.02963867 1031.49305664 -269.56005859 1032.26220703 C-286.17244266 1056.32472843 -304.26751032 1079.41606684 -324 1101 C-327.0818665 1099.62786987 -329.17492795 1098.06621101 -331.54003906 1095.67114258 C-332.55194305 1094.65417046 -332.55194305 1094.65417046 -333.58428955 1093.61665344 C-334.30413025 1092.88335312 -335.02397095 1092.1500528 -335.765625 1091.39453125 C-336.51785339 1090.63710129 -337.27008179 1089.87967133 -338.04510498 1089.09928894 C-340.45153225 1086.67505694 -342.85119238 1084.24427017 -345.25 1081.8125 C-347.63533204 1079.39940908 -350.02215052 1076.98783879 -352.41204834 1074.57926941 C-353.89752375 1073.08169436 -355.38032038 1071.58145555 -356.85992432 1070.07807922 C-360.83809633 1066.06210065 -364.91084981 1062.23615027 -369.20904541 1058.56362915 C-372.10839194 1056.03229599 -374.80216542 1053.30506908 -377.5 1050.5625 C-378.03625 1050.02173828 -378.5725 1049.48097656 -379.125 1048.92382812 C-380.41904036 1047.61823383 -381.70988174 1046.30947004 -383 1045 C-379.85961679 1040.63835666 -376.59131315 1036.49037986 -373.0480957 1032.44677734 C-365.48222549 1023.80539724 -358.60509223 1014.7104834 -351.80664062 1005.45800781 C-350.16485044 1003.2242857 -348.51303158 1000.99837646 -346.859375 998.7734375 C-321.39872559 964.25820681 -299.01485073 927.34106834 -278 890 C-277.59007812 889.27393555 -277.18015625 888.54787109 -276.7578125 887.79980469 C-274.27182942 883.39043438 -271.81658187 878.96508304 -269.38427734 874.52587891 C-268.43420293 872.79228633 -267.48124946 871.0602694 -266.52587891 869.32958984 C-247.38720872 834.57262111 -229.61700138 798.91878618 -213.60302734 762.61621094 C-212.00324029 759.00730965 -210.37552863 755.41235778 -208.73828125 751.8203125 C-168.69500145 663.7997978 -136.05962289 571.87796765 -5.48565674 32.94110107 C-4.75617684 28.52342508 -4.01736189 24.10732726 -3.27734375 19.69140625 C-2.17818778 13.12870867 -1.08463311 6.56511665 0 0 Z " fill="#CFA54B" transform="translate(791,1692)"/>
<path d="M0 0 C15.86731552 49.29290532 24.23891983 100.44131711 28 152 C28.09571289 153.25031006 28.19142578 154.50062012 28.29003906 155.78881836 C29.39365075 171.59858774 29.24585466 187.4722399 29.25 203.3125 C29.25044186 204.08685143 29.25088371 204.86120285 29.25133896 205.65901947 C29.25926557 232.21263943 28.55046102 258.55266565 26 285 C25.9175 285.87740845 25.835 286.75481689 25.75 287.65881348 C22.89101231 317.99019875 18.32271242 348.01016388 13 378 C12.85065002 378.84919006 12.70130005 379.69838013 12.54742432 380.57330322 C-3.55527778 471.90997866 -32.71650451 561.61762933 -92 707 C-92.27718872 707.6300293 -92.55437744 708.26005859 -92.83996582 708.90917969 C-114.13585762 757.27516816 -136.55357549 805.7100164 -162.21484375 851.9296875 C-165.23151918 857.37649209 -168.08343226 862.90426431 -170.9375 868.4375 C-176.46946681 879.12548347 -182.35315263 889.58952902 -188.3203125 900.0390625 C-190.03306827 903.05829244 -191.72309718 906.08917642 -193.40625 909.125 C-201.03405496 922.87942167 -208.95605954 936.42127803 -217.10888672 949.87060547 C-219.00145135 953.00240168 -220.88001587 956.14215543 -222.75390625 959.28515625 C-231.31659252 973.64261143 -240.06553333 987.87097041 -249 1002 C-249.6511377 1003.03157227 -250.30227539 1004.06314453 -250.97314453 1005.12597656 C-264.16734966 1025.99827469 -278.06583447 1046.33538431 -292.26611328 1066.53222656 C-295.18324436 1070.68406561 -298.0911504 1074.84235676 -301 1079 C-304.55737228 1084.08288776 -308.11550771 1089.16523764 -311.67578125 1094.24609375 C-318.14426703 1103.47890444 -324.5949891 1112.7230319 -331 1122 C-341.67016774 1120.49257006 -352.20412101 1118.45397637 -362.765625 1116.33203125 C-364.09103931 1116.0665577 -364.09103931 1116.0665577 -365.44322968 1115.79572105 C-370.1281841 1114.85725506 -374.81243146 1113.91535184 -379.49609375 1112.97045898 C-383.309421 1112.20168083 -387.12384521 1111.43877291 -390.93945312 1110.68139648 C-444.77461 1099.99094035 -444.77461 1099.99094035 -465.5 1091.375 C-466.51006104 1090.96169434 -467.52012207 1090.54838867 -468.56079102 1090.12255859 C-492.2705345 1080.18171178 -514.06882162 1067.20729321 -534 1051 C-534.52948242 1050.57348145 -535.05896484 1050.14696289 -535.60449219 1049.70751953 C-550.38138101 1037.71947109 -564.49726633 1024.18444047 -576 1009 C-577.02083209 1007.69429248 -578.04308814 1006.38969757 -579.06640625 1005.0859375 C-621.0270123 951.33063348 -644.88197226 885.83652734 -656 819 C-656.1762793 817.94925293 -656.35255859 816.89850586 -656.53417969 815.81591797 C-659.56807146 797.01205028 -660.74147934 778.11738151 -661.9375 759.125 C-665.20946118 707.22864072 -670.10355426 655.01628265 -680.65209961 604.02563477 C-681 602 -681 602 -681 599 C-665.39617306 595.73117571 -649.78524026 592.49926329 -634.15673828 589.3503418 C-631.93621091 588.90184218 -629.71617025 588.45092723 -627.49658203 587.99780273 C-624.22537754 587.33023418 -620.952739 586.67016373 -617.6796875 586.01171875 C-616.69225555 585.80866623 -615.70482361 585.60561371 -614.68746948 585.39640808 C-610.05369524 584.47243866 -605.75368281 583.74375689 -601 584 C-588.25436174 642.72403132 -582.68123126 703.11131792 -579.22070312 763.01708984 C-575.32491926 830.01250581 -556.70450276 903.31141862 -513 956 C-512.5270752 956.57298828 -512.05415039 957.14597656 -511.56689453 957.73632812 C-491.62229531 981.80224869 -467.51992949 1000.76923551 -438.75 1013.1875 C-438.07348389 1013.48422607 -437.39696777 1013.78095215 -436.69995117 1014.08666992 C-420.83500778 1020.67262726 -404.07185296 1024.26028874 -387.25 1027.375 C-385.36570147 1027.73210365 -383.48158572 1028.09017316 -381.59765625 1028.44921875 C-377.06711947 1029.31055281 -372.53436128 1030.15904238 -368 1031 C-367.67150558 1030.53444199 -367.34301117 1030.06888397 -367.00456238 1029.58921814 C-365.47579405 1027.4226921 -363.94689274 1025.25625995 -362.41796875 1023.08984375 C-361.86626511 1022.30802231 -361.31456146 1021.52620087 -360.74613953 1020.72068787 C-357.95731965 1016.76951551 -355.16511218 1012.82086881 -352.36328125 1008.87890625 C-339.07588159 990.12109644 -326.60802583 970.79664366 -314.43603516 951.29980469 C-313.47144111 949.75501109 -312.50494039 948.21140655 -311.53662109 946.66894531 C-281.903412 899.45343007 -254.44859499 850.80546686 -228.77734375 801.3359375 C-227.07726614 798.06149839 -225.36508937 794.79449746 -223.62890625 791.5390625 C-210.83100573 767.52912944 -198.8613284 743.10482775 -187.54736328 718.36376953 C-186.00636789 715.01384299 -184.44283061 711.67544581 -182.87109375 708.33984375 C-162.99441726 666.09884259 -145.04696549 622.837676 -129 579 C-128.72583252 578.25184021 -128.45166504 577.50368042 -128.16918945 576.73284912 C-95.69908503 488.01778969 -69.77180745 396.53845717 -55 268 C-54.89495148 266.89990601 -54.89495148 266.89990601 -54.78778076 265.77758789 C-51.04184296 226.16726342 -50.92034668 184.57152864 -55 145 C-55.13093691 143.65192604 -55.26110911 142.30377764 -55.390625 140.95556641 C-59.0490474 103.27222477 -65.4755847 65.66029229 -76.93359375 29.515625 C-78 26 -78 26 -78 24 C-61.82580975 18.80776577 -45.63997753 13.65378546 -29.43432617 8.56054688 C-27.14487093 7.84044018 -24.85582179 7.11904131 -22.56713867 6.39648438 C-19.20316657 5.33450005 -15.83806056 4.27618557 -12.47265625 3.21875 C-11.44584244 2.89386597 -10.41902863 2.56898193 -9.36109924 2.23425293 C-8.42088425 1.93974243 -7.48066925 1.64523193 -6.51196289 1.34179688 C-5.68579971 1.08168823 -4.85963654 0.82157959 -4.00843811 0.55358887 C-2 0 -2 0 0 0 Z " fill="#073B4F" transform="translate(1528,1689)"/>
<path d="M0 0 C59.73 0 119.46 0 181 0 C191.33060885 18.36552685 191.33060885 18.36552685 194.68359375 24.98828125 C195.25647377 26.1090934 195.25647377 26.1090934 195.84092712 27.25254822 C196.63766471 28.81198727 197.43302544 30.37213055 198.22698975 31.9329834 C200.30214646 36.01214739 202.38814462 40.0857672 204.47265625 44.16015625 C204.87476318 44.94679657 205.27687012 45.73343689 205.69116211 46.54391479 C208.91304891 52.84287791 212.18462806 59.11400907 215.49584961 65.36645508 C218.86358217 71.72723887 222.18394224 78.11214021 225.5 84.5 C229.29181874 91.80272137 233.0956867 99.09845296 236.9375 106.375 C241.61489944 115.23581609 246.22144211 124.13289646 250.82788086 133.03076172 C254.195952 139.53263523 257.58020584 146.02518973 261 152.5 C265.65778401 161.31873773 270.24302091 170.17455321 274.828125 179.03125 C278.19612542 185.53295516 281.58029083 192.02535064 285 198.5 C289.03875326 206.14670617 293.02422743 213.82037519 297 221.5 C301.41028884 230.01829282 305.84033482 238.52514906 310.31689453 247.00878906 C315.06495657 256.00979955 319.76443537 265.03611027 324.46777344 274.06054688 C326.47986132 277.92057526 328.49336412 281.77986417 330.50732422 285.63891602 C331.49650973 287.5349358 332.48512358 289.43125396 333.47314453 291.32788086 C336.11005169 296.38811527 338.75839983 301.44197391 341.421875 306.48828125 C341.97875 307.54660156 342.535625 308.60492187 343.109375 309.6953125 C344.18417419 311.73743097 345.26218284 313.77786422 346.34375 315.81640625 C346.82328125 316.7290625 347.3028125 317.64171875 347.796875 318.58203125 C348.22323242 319.38874268 348.64958984 320.1954541 349.08886719 321.02661133 C350 323 350 323 350 325 C309.74 325 269.48 325 228 325 C222.39533178 315.03614538 216.91840692 305.12929499 211.74423218 294.95233154 C206.69120544 285.01905605 201.59594995 275.12049692 196.1875 265.375 C190.0785636 254.35185984 184.39381353 243.11518239 178.66879272 231.88983154 C173.89221986 222.52865131 169.10551176 213.18750853 164 204 C157.49753383 192.29295327 151.45872912 180.34607532 145.37890625 168.41601562 C144.96762482 167.60972214 144.55634338 166.80342865 144.13259888 165.97270203 C143.37913191 164.49483287 142.62674184 163.01641364 141.87594604 161.53718567 C137.34303052 152.64155842 132.65126699 143.83740728 128 135 C127.67 345.21 127.34 555.42 127 772 C85.09 772 43.18 772 0 772 C0 517.24 0 262.48 0 0 Z " fill="#CEA44B" transform="translate(1792,1864)"/>
<path d="M0 0 C29.39189995 27.09181191 43.58403139 65.68555151 45.24609375 105.08398438 C45.60717727 115.40495502 45.55031749 125.82638978 44.31640625 136.09375 C42.65809968 137.75205657 40.66098257 137.21455019 38.4451561 137.21980286 C37.36507971 137.21444771 37.36507971 137.21444771 36.26318359 137.20898438 C35.48687717 137.2089592 34.71057076 137.20893402 33.9107399 137.20890808 C31.19957417 137.20703289 28.48849176 137.19731907 25.77734375 137.1875 C23.76907389 137.18365974 21.76080359 137.18004798 19.75253296 137.17663574 C-14.21758064 137.1023174 -48.18768083 136.85760197 -82.157161 136.64836884 C-92.16277828 136.58678994 -102.16840518 136.52684304 -112.17403293 136.46699238 C-132.67723054 136.3443139 -153.18041606 136.21971219 -173.68359375 136.09375 C-172.89414658 138.82783859 -172.10108317 141.56079005 -171.3059082 144.29321289 C-171.08382942 145.06374245 -170.86175064 145.834272 -170.6329422 146.62815094 C-169.1164585 151.82532229 -167.41714591 156.73805606 -164.87109375 161.53125 C-164.53198975 162.18609375 -164.19288574 162.8409375 -163.84350586 163.515625 C-160.76751763 169.27166111 -157.16200749 174.33167473 -152.68359375 179.09375 C-152.04292969 179.78726563 -151.40226562 180.48078125 -150.7421875 181.1953125 C-141.73831035 190.04542325 -128.97205471 195.68180166 -116.68359375 198.09375 C-114.95109375 198.4340625 -114.95109375 198.4340625 -113.18359375 198.78125 C-91.93318374 200.67860804 -71.87490636 194.9522441 -55.40234375 181.1875 C-48.53830946 174.74586782 -43.5960965 166.60919717 -39.68359375 158.09375 C-31.14058259 158.70929222 -22.69673372 159.69753495 -14.21875 160.90625 C-12.98241318 161.08003174 -11.74607635 161.25381348 -10.47227478 161.43286133 C-7.88127601 161.79772756 -5.29050344 162.16420353 -2.69995117 162.53222656 C1.26657624 163.09554938 5.23379272 163.65364842 9.20117188 164.2109375 C11.7279074 164.567405 14.25460161 164.92416545 16.78125 165.28125 C17.96460434 165.44794189 19.14795868 165.61463379 20.36717224 165.78637695 C22.0202816 166.02167114 22.0202816 166.02167114 23.70678711 166.26171875 C24.67208847 166.39860107 25.63738983 166.5354834 26.63194275 166.67651367 C29.21188789 167.07750509 31.76072004 167.56106969 34.31640625 168.09375 C32.23233259 186.85041295 20.80819571 203.56061651 8.31640625 217.09375 C7.45144531 218.04121094 6.58648438 218.98867187 5.6953125 219.96484375 C-17.43787789 244.19797782 -49.10676513 256.84987499 -81.68359375 262.09375 C-82.86953125 262.28710938 -84.05546875 262.48046875 -85.27734375 262.6796875 C-125.06591575 267.33522109 -169.8871813 259.28581256 -201.93359375 234.15625 C-203.53069576 232.81834979 -205.11404388 231.46386861 -206.68359375 230.09375 C-207.52664062 229.36027344 -208.3696875 228.62679687 -209.23828125 227.87109375 C-211.75170895 225.64415097 -214.22332042 223.37916093 -216.68359375 221.09375 C-217.35003906 220.49304687 -218.01648437 219.89234375 -218.703125 219.2734375 C-246.97822172 192.66835667 -258.49812183 152.41931654 -259.87109375 114.72265625 C-260.63446732 80.5725662 -251.42509601 44.95539515 -229.68359375 18.09375 C-229.23612793 17.54090332 -228.78866211 16.98805664 -228.32763672 16.41845703 C-213.31800746 -1.97348253 -195.3602907 -15.23573869 -173.68359375 -24.90625 C-172.10771484 -25.61007813 -172.10771484 -25.61007813 -170.5 -26.328125 C-157.00619094 -31.89754428 -142.1594986 -35.23520595 -127.68359375 -36.90625 C-126.32041016 -37.07253906 -126.32041016 -37.07253906 -124.9296875 -37.2421875 C-80.02036505 -41.86428745 -33.97788088 -30.48424546 0 0 Z M-156.68359375 47.09375 C-166.41029284 59.04852392 -170.96513007 71.21989527 -174.68359375 86.09375 C-129.80359375 86.09375 -84.92359375 86.09375 -38.68359375 86.09375 C-42.50707588 66.97633935 -50.44791414 50.01821264 -66.62109375 38.28125 C-95.29316106 19.54766001 -132.74746647 21.08097241 -156.68359375 47.09375 Z " fill="#073B4F" transform="translate(3802.68359375,2372.90625)"/>
<path d="M0 0 C42.00619956 -1.05670481 83.40429543 9.63877472 114.6262207 38.89428711 C142.67894138 65.81869323 157.92889013 102.70077852 158.98168945 141.52856445 C159.02125566 145.2694373 159.02422398 149.00846064 159.01269531 152.74951172 C159.0165625 154.01601562 159.02042969 155.28251953 159.02441406 156.58740234 C159.02248047 158.43688477 159.02248047 158.43688477 159.02050781 160.32373047 C159.01937988 161.42676514 159.01825195 162.5297998 159.01708984 163.66625977 C158.87023539 167.52021931 158.38434901 171.23774129 157.88769531 175.06201172 C115.91388931 175.1804364 73.94151023 174.87358938 31.9687469 174.6166296 C21.9026707 174.55506078 11.83658504 174.49510837 1.77049851 174.4352541 C-18.8571131 174.3125653 -39.48471276 174.18796446 -60.11230469 174.06201172 C-59.02360381 177.4161084 -57.92433398 180.76665181 -56.82324219 184.11669922 C-56.36485962 185.529552 -56.36485962 185.529552 -55.8972168 186.97094727 C-49.85084351 205.30176193 -39.4650442 220.12135362 -22.28808594 229.62451172 C-4.5585709 238.1225389 15.30843259 239.55269596 34.00195312 233.36181641 C43.12116894 230.01009353 50.72104908 225.70817526 57.88769531 219.06201172 C58.50773437 218.54380859 59.12777344 218.02560547 59.76660156 217.49169922 C66.20828874 211.75614777 70.07604717 203.685308 73.88769531 196.06201172 C83.24329469 196.65059784 92.45004812 197.74989534 101.71972656 199.12841797 C103.09114563 199.32915495 104.46262206 199.52950038 105.83415222 199.72947693 C109.39707254 200.25001875 112.95920266 200.7757785 116.5211792 201.30273438 C120.17477821 201.84226475 123.82912068 202.37671089 127.48339844 202.91162109 C134.61888949 203.95685544 141.7535512 205.00761881 148.88769531 206.06201172 C148.26143424 208.30507644 147.63129104 210.54705751 146.99951172 212.78857422 C146.64901764 214.03719238 146.29852356 215.28581055 145.93740845 216.57226562 C144.71767128 220.62725254 143.22167672 224.31903083 141.26269531 228.06201172 C140.92496094 228.72080322 140.58722656 229.37959473 140.23925781 230.05834961 C132.96073445 243.82260427 123.00541689 256.27870235 110.88769531 266.06201172 C109.61345703 267.09261719 109.61345703 267.09261719 108.31347656 268.14404297 C89.21237381 283.0236196 67.48559837 292.76902412 43.88769531 298.06201172 C43.16308105 298.22572266 42.4384668 298.38943359 41.69189453 298.55810547 C19.1943854 303.36021988 -6.68622443 303.01202205 -29.11230469 298.06201172 C-29.89138184 297.89572266 -30.67045898 297.72943359 -31.47314453 297.55810547 C-69.51691256 289.20193921 -102.17079547 266.73210758 -123.18261719 233.90576172 C-144.10975167 200.05103666 -151.34247245 155.32574297 -143.15136719 116.29248047 C-142.81592502 114.87968876 -142.46904461 113.46957645 -142.11230469 112.06201172 C-141.90831055 111.2545752 -141.70431641 110.44713867 -141.49414062 109.61523438 C-132.072116 73.59347648 -110.96787122 42.18367547 -78.7890625 22.65185547 C-54.89319656 8.67053574 -27.69631115 0.81309097 0 0 Z M-42.22167969 84.26513672 C-51.15259549 94.71915444 -60.11230469 110.03923388 -60.11230469 124.06201172 C-15.56230469 124.06201172 28.98769531 124.06201172 74.88769531 124.06201172 C71.3022428 104.34202291 62.76614359 87.72851088 46.31347656 75.65185547 C18.39697867 57.35553559 -18.74676452 59.74689199 -42.22167969 84.26513672 Z " fill="#073B4F" transform="translate(2653.1123046875,2334.93798828125)"/>
<path d="M0 0 C28.58353751 26.00741171 44.73470416 62.57664638 46.87084961 101.078125 C46.99186013 106.15506621 47.05755658 111.23027793 47.08178711 116.30859375 C47.08662109 117.26306396 47.09145508 118.21753418 47.09643555 119.20092773 C47.09417969 120.13622314 47.09192383 121.07151855 47.08959961 122.03515625 C47.08847168 122.85838379 47.08734375 123.68161133 47.08618164 124.52978516 C46.89196535 129.26353252 46.41397507 133.96892032 45.95678711 138.68359375 C3.9829811 138.80201843 -37.98939798 138.49517142 -79.9621613 138.23821163 C-90.02823751 138.17664281 -100.09432317 138.1166904 -110.16040969 138.05683613 C-130.7880213 137.93414733 -151.41562097 137.80954649 -172.04321289 137.68359375 C-171.25288985 140.41837093 -170.45911695 143.15206654 -169.66333008 145.88525391 C-169.32977005 147.0414901 -169.32977005 147.0414901 -168.98947144 148.22108459 C-167.48190033 153.38582183 -165.81273883 158.28899211 -163.29321289 163.05859375 C-162.95523682 163.71158447 -162.61726074 164.3645752 -162.26904297 165.03735352 C-153.63630589 181.12608573 -140.29942982 191.9867781 -123.01977539 197.6796875 C-103.80053551 203.1821822 -83.67664487 201.17358624 -66.04321289 191.68359375 C-53.15167288 183.60380052 -44.40040822 173.5198424 -38.04321289 159.68359375 C-29.50020173 160.29913597 -21.05635286 161.2873787 -12.57836914 162.49609375 C-11.34203232 162.66987549 -10.1056955 162.84365723 -8.83189392 163.02270508 C-6.24089515 163.38757131 -3.65012258 163.75404728 -1.05957031 164.12207031 C2.9069571 164.68539313 6.87417358 165.24349217 10.84155273 165.80078125 C13.36828825 166.15724875 15.89498247 166.5140092 18.42163086 166.87109375 C19.6049852 167.03778564 20.78833954 167.20447754 22.0075531 167.3762207 C23.66066246 167.61151489 23.66066246 167.61151489 25.34716797 167.8515625 C26.31246933 167.98844482 27.27777069 168.12532715 28.27232361 168.26635742 C30.85226875 168.66734884 33.4011009 169.15091344 35.95678711 169.68359375 C35.45130019 175.51613518 34.2706403 180.13010809 31.83178711 185.43359375 C31.36264893 186.47229614 31.36264893 186.47229614 30.8840332 187.53198242 C17.56579862 216.46826704 -6.15132742 237.88422503 -35.04321289 250.68359375 C-35.96650391 251.09665771 -35.96650391 251.09665771 -36.90844727 251.51806641 C-76.7701001 269.08726992 -124.72654438 270.06679702 -165.47045898 254.77246094 C-202.53032944 240.04030191 -229.59101204 213.22135258 -245.70727539 176.9375 C-261.96335869 137.3430047 -262.64872056 90.23081075 -246.16772461 50.57714844 C-240.2701348 36.8966988 -232.57933236 25.13491713 -223.04321289 13.68359375 C-222.53016602 13.04679687 -222.01711914 12.41 -221.48852539 11.75390625 C-217.75149325 7.20886716 -213.59350889 3.40452545 -209.04321289 -0.31640625 C-208.08286133 -1.10273438 -207.12250977 -1.8890625 -206.13305664 -2.69921875 C-148.82377489 -48.66372858 -55.57835816 -49.0478807 0 0 Z M-155.48852539 49.4375 C-164.93438642 61.4609604 -169.0761328 72.80704339 -173.04321289 87.68359375 C-128.16321289 87.68359375 -83.28321289 87.68359375 -37.04321289 87.68359375 C-40.89904994 66.47648999 -50.28612175 50.34125621 -67.93774414 37.65625 C-72.75434301 34.59664946 -77.64603247 32.49687571 -83.04321289 30.68359375 C-84.3715918 30.20599609 -84.3715918 30.20599609 -85.72680664 29.71875 C-110.68790711 22.03568787 -138.27593453 30.05271317 -155.48852539 49.4375 Z " fill="#073B4F" transform="translate(3452.043212890625,2371.31640625)"/>
<path d="M0 0 C1.58658458 1.36839553 3.14795843 2.7663847 4.6875 4.1875 C5.65042969 5.05890625 6.61335938 5.9303125 7.60546875 6.828125 C30.57071054 28.26844548 40.66609405 59.34984386 41.86709213 90.19152069 C42.19009783 100.63513507 42.17891947 111.08694103 42.19361091 121.53453779 C42.20311864 126.07219939 42.2293298 130.60976717 42.25361633 135.14736938 C42.29694926 143.70311539 42.32569854 152.25884286 42.34893972 160.81466448 C42.37617162 170.57078776 42.42007042 180.32681509 42.46522844 190.08286929 C42.55759792 210.11769589 42.62890356 230.15254856 42.6875 250.1875 C50.1125 251.6725 50.1125 251.6725 57.6875 253.1875 C57.6875 258.7975 57.6875 264.4075 57.6875 270.1875 C25.0175 270.1875 -7.6525 270.1875 -41.3125 270.1875 C-41.33828125 258.01746094 -41.3640625 245.84742187 -41.390625 233.30859375 C-41.41580081 225.58396843 -41.4419775 217.85936781 -41.47265625 210.13476562 C-41.5211314 197.88257028 -41.56560053 185.63045711 -41.58349609 173.37817383 C-41.59655069 164.45318262 -41.62361201 155.52835935 -41.66711307 146.60346276 C-41.68964256 141.88291041 -41.70541582 137.16256453 -41.70438385 132.44195366 C-41.70363217 127.98736553 -41.72178439 123.53323232 -41.75366783 119.07876205 C-41.76209941 117.45478838 -41.76396333 115.83076327 -41.75830269 114.20677757 C-41.70390682 96.18286184 -45.36430569 79.76602975 -58.11328125 66.19140625 C-68.73699344 56.51118538 -81.68102848 53.8192388 -95.6640625 53.98046875 C-110.09289946 54.79923573 -124.56580143 61.46807703 -134.3125 72.1875 C-148.01354702 88.61208172 -149.43726316 107.35100618 -149.51782227 127.82666016 C-149.52741903 129.38476816 -149.53743012 130.94287365 -149.54782104 132.50097656 C-149.57468154 136.70271358 -149.59579226 140.9044616 -149.61582303 145.10623598 C-149.63779995 149.50780487 -149.66513097 153.90934055 -149.69187927 158.31088257 C-149.7416488 166.63328361 -149.78664554 174.95570325 -149.82990164 183.27814043 C-149.88867791 194.53312037 -149.9548795 205.78805653 -150.02065182 217.04299736 C-150.12398005 234.757802 -150.21743284 252.47264464 -150.3125 270.1875 C-177.3725 270.1875 -204.4325 270.1875 -232.3125 270.1875 C-232.3125 184.7175 -232.3125 99.2475 -232.3125 11.1875 C-237.5925 10.5275 -242.8725 9.8675 -248.3125 9.1875 C-248.3125 3.2475 -248.3125 -2.6925 -248.3125 -8.8125 C-215.9725 -8.8125 -183.6325 -8.8125 -150.3125 -8.8125 C-149.9825 7.3575 -149.6525 23.5275 -149.3125 40.1875 C-146.6725 35.2375 -144.0325 30.2875 -141.3125 25.1875 C-125.88049071 3.54260385 -105.55364712 -13.1102214 -78.953125 -18.4921875 C-51.32396423 -22.97425136 -22.39746976 -17.17377873 0 0 Z " fill="#073B4F" transform="translate(3101.3125,2354.8125)"/>
<path d="M0 0 C42.24 0 84.48 0 128 0 C128 64.38212512 128 64.38212512 127.90820312 87.05078125 C127.89826113 89.70925366 127.88840369 92.36772626 127.87864685 95.02619934 C127.85804352 100.59699778 127.83671624 106.16779299 127.81480408 111.73858643 C127.78312918 119.79169241 127.75269111 127.84480275 127.72249681 135.89791441 C127.67340384 148.98321567 127.62339362 162.06851324 127.57275391 175.15380859 C127.52374518 187.81819472 127.47520365 200.4825825 127.42724609 213.14697266 C127.42422859 213.94367312 127.42121109 214.74037358 127.41810215 215.56121647 C127.39448516 221.7976474 127.37089413 228.03407843 127.34731126 234.27050948 C127.23294109 264.51367845 127.11631985 294.75683835 127 325 C85.09 325 43.18 325 0 325 C0 217.75 0 110.5 0 0 Z " fill="#CFA54B" transform="translate(2306,1864)"/>
<path d="M0 0 C0.85078125 0.48339844 1.7015625 0.96679688 2.578125 1.46484375 C25.45367109 15.65920239 38.86078191 40.06286462 45.15234375 65.57421875 C53.15587804 100.22948738 49.29750729 137.79636788 31.25 168.6875 C17.58434507 189.8666472 -1.06258027 204.29863829 -25.6953125 210.30859375 C-26.78585938 210.53675781 -27.87640625 210.76492187 -29 211 C-29.90878906 211.19078125 -30.81757813 211.3815625 -31.75390625 211.578125 C-54.00954568 214.47055467 -76.28169751 211.03997834 -94.5390625 197.45703125 C-103.54696459 190.34190581 -111.09231126 181.8461479 -117 172 C-117.33 213.25 -117.66 254.5 -118 297 C-138.79 297 -159.58 297 -181 297 C-181.33 202.62 -181.66 108.24 -182 11 C-185.63 10.34 -189.26 9.68 -193 9 C-193 4.71 -193 0.42 -193 -4 C-168.58 -4 -144.16 -4 -119 -4 C-118.67 6.56 -118.34 17.12 -118 28 C-116.515 25.855 -115.03 23.71 -113.5 21.5 C-100.41689125 3.08116799 -83.0664686 -7.30152522 -61 -12 C-39.50889787 -15.53616349 -18.63463488 -10.67404963 0 0 Z M-99 53 C-99.77859375 53.58652344 -100.5571875 54.17304688 -101.359375 54.77734375 C-111.83143079 63.36934925 -119.05338921 76.55068906 -121 90 C-122.31489914 108.28357992 -119.50714532 124.37844087 -107.59375 138.94140625 C-98.27704071 149.01167291 -86.16975438 155.65820065 -72.265625 156.3359375 C-55.27847871 156.6413772 -41.67681708 152.75499624 -28.87890625 141.04296875 C-16.50221589 127.58556946 -13.3440446 111.86808943 -13.69140625 94.2421875 C-14.35034551 79.03463503 -21.12727941 65.70935603 -32.11328125 55.26171875 C-51.23267222 40.28184409 -79.22265226 38.09783763 -99 53 Z " fill="#CFA54B" transform="translate(4043,2029)"/>
<path d="M0 0 C0.67675781 0.50273438 1.35351562 1.00546875 2.05078125 1.5234375 C23.88830184 18.89305158 34.6140289 48.72062895 37.80371094 75.57788086 C40.49137916 108.74250324 35.83170199 144.11654864 14.5625 170.9375 C13.06420344 172.64504142 11.54345899 174.33316929 10 176 C9.24203125 176.84949219 8.4840625 177.69898437 7.703125 178.57421875 C-6.51111777 193.74072288 -27.54444632 204.04156397 -48.38818359 205.12402344 C-73.34451187 205.87872293 -94.01811624 200.74136598 -112.71875 183.25390625 C-118.75196741 177.2930048 -123.23670406 171.14494391 -128 164 C-128.33 205.58 -128.66 247.16 -129 290 C-149.46 290 -169.92 290 -191 290 C-191 195.62 -191 101.24 -191 4 C-196.94 3.01 -196.94 3.01 -203 2 C-203 -2.29 -203 -6.58 -203 -11 C-178.91 -11 -154.82 -11 -130 -11 C-129.67 -0.11 -129.34 10.78 -129 22 C-126.03 17.71 -123.06 13.42 -120 9 C-113.28510387 1.14071054 -106.0618554 -4.99106952 -97 -10 C-96.22527344 -10.45890625 -95.45054687 -10.9178125 -94.65234375 -11.390625 C-64.56938409 -28.06431884 -26.11425775 -19.81081622 0 0 Z M-118.125 54.0625 C-124.34259341 61.3246491 -129.80206994 71.39968727 -131 81 C-131.14308594 82.07378906 -131.28617188 83.14757813 -131.43359375 84.25390625 C-133.13776193 101.10233185 -129.5258339 116.91072729 -119.1171875 130.46484375 C-111.08212001 140.08616995 -98.48951488 147.97265851 -85.78393555 149.21704102 C-69.45064444 150.03111458 -55.12992853 147.69999805 -42.37109375 136.7421875 C-31.22892976 126.14799878 -24.83700322 113.03363643 -23.76171875 97.57421875 C-23.41613905 79.47675545 -27.76237525 63.73299096 -40.5234375 50.2890625 C-51.52124952 40.1238924 -65.32686433 35.65159399 -80.14453125 35.8515625 C-95.28330361 36.63853015 -107.71332746 43.31175 -118.125 54.0625 Z " fill="#CFA54B" transform="translate(3348,2036)"/>
<path d="M0 0 C11.43588652 11.77806266 19.43898752 26.59387944 24.1875 42.25 C24.42218994 43.02005371 24.65687988 43.79010742 24.89868164 44.58349609 C28.36603303 56.84942803 29.05659542 69.1257035 28.9375 81.8125 C28.93603795 83.17708271 28.9353838 84.54166652 28.93554688 85.90625 C28.8909337 95.7806326 28.8909337 95.7806326 27.75 98.0625 C13.31250974 98.09328594 -1.12498134 98.11354225 -15.5625 98.125 C-16.6334856 98.12585602 -17.70447121 98.12671204 -18.80791092 98.12759399 C-48.10493268 98.14826853 -77.39420633 98.04947852 -106.6875 97.5625 C-107.76727804 97.54456327 -107.76727804 97.54456327 -108.86886978 97.52626419 C-117.32949316 97.38459448 -125.78986989 97.23115893 -134.25 97.0625 C-133.47859938 99.44299999 -132.70179768 101.82151078 -131.921875 104.19921875 C-131.70644043 104.86594604 -131.49100586 105.53267334 -131.26904297 106.21960449 C-126.8568928 119.61597495 -119.25186166 131.04526963 -106.62890625 137.88671875 C-105.45134766 138.46873047 -105.45134766 138.46873047 -104.25 139.0625 C-103.64027344 139.37832031 -103.03054687 139.69414062 -102.40234375 140.01953125 C-89.86865131 145.61148634 -75.00186272 144.94960655 -62.33349609 140.36962891 C-51.10710663 135.86336374 -43.47081369 129.25163018 -37.49609375 118.76171875 C-36.88306396 117.69139404 -36.27003418 116.62106934 -35.63842773 115.51831055 C-35.18024658 114.70789307 -34.72206543 113.89747559 -34.25 113.0625 C-26.89878299 114.03699422 -19.54818312 115.01604384 -12.19799805 115.99829102 C-9.69651097 116.33202834 -7.19488354 116.66471535 -4.69311523 116.99633789 C-1.10102685 117.47267231 2.49054291 117.95275864 6.08203125 118.43359375 C7.20398392 118.58154892 8.32593658 118.72950409 9.48188782 118.88194275 C10.52274033 119.02201248 11.56359283 119.16208221 12.63598633 119.30639648 C14.0116552 119.48959694 14.0116552 119.48959694 15.41511536 119.67649841 C17.75 120.0625 17.75 120.0625 20.75 121.0625 C19.60339716 137.87934166 7.60484514 152.87486222 -4.25 164.0625 C-21.08879072 178.52512487 -41.42370512 187.46171531 -63.25 191.0625 C-64.26964844 191.24554687 -65.28929688 191.42859375 -66.33984375 191.6171875 C-99.61258423 195.40649061 -133.1211317 188.46325019 -159.60498047 167.42626953 C-181.41697696 149.34348348 -195.0352707 122.34818279 -198.00390625 94.22265625 C-200.19160212 62.17651787 -195.02412498 30.61469899 -173.56640625 5.56201172 C-152.9785633 -17.88949633 -124.78294036 -30.02231036 -94 -32.6875 C-58.01114895 -34.46239612 -26.20242508 -25.215888 0 0 Z M-121.25390625 30.65625 C-127.80123092 38.54891535 -134.25 49.62663198 -134.25 60.0625 C-101.25 60.0625 -68.25 60.0625 -34.25 60.0625 C-36.1185304 45.11425677 -42.47084755 34.53733308 -53.875 24.84765625 C-74.41448232 9.40926247 -103.79958799 11.98852994 -121.25390625 30.65625 Z " fill="#CFA54B" transform="translate(3791.25,2048.9375)"/>
<path d="M0 0 C12.84406062 13.2283711 21.35853868 30.25048672 25.75 48.0625 C26.06839844 49.31546875 26.38679688 50.5684375 26.71484375 51.859375 C33.14116168 80.23754001 29.16085975 112.68563295 14.6640625 138.0390625 C11.33344748 143.3000748 7.65859739 148.21938631 3.75 153.0625 C3.12480469 153.85398437 2.49960938 154.64546875 1.85546875 155.4609375 C-15.5476052 176.34462625 -43.84886737 188.33244546 -70.4765625 190.86767578 C-86.78365032 192.01319128 -103.31498813 192.00934838 -119.25 188.0625 C-119.92385742 187.89621094 -120.59771484 187.72992187 -121.29199219 187.55859375 C-131.96484908 184.80496608 -141.62907715 180.38865135 -151.25 175.0625 C-152.23742188 174.51851562 -153.22484375 173.97453125 -154.2421875 173.4140625 C-176.61108136 160.12240093 -192.47719177 136.67360122 -199.03613281 111.72802734 C-206.67603736 81.20384471 -203.85409795 46.2071408 -187.921875 18.6953125 C-170.54174597 -8.67432994 -145.38589571 -24.61210821 -114.0703125 -31.65234375 C-72.69381106 -39.3333474 -30.49577416 -29.30524845 0 0 Z M-128.03515625 40.03515625 C-139.31361014 54.0827446 -141.7666588 71.61917246 -140.25 89.0625 C-138.10713285 104.24198862 -130.73686335 117.62685035 -118.6484375 127.1015625 C-105.63726217 135.91316539 -91.41793909 138.57239113 -76.0625 136 C-62.38157368 133.29422059 -51.15904872 125.80436225 -43.0625 114.5625 C-33.71975911 99.95986956 -30.7133083 81.75645045 -34.37670898 64.83618164 C-38.01968404 50.04116927 -45.00155227 36.98937702 -58.1875 28.625 C-82.53498198 15.33757292 -109.41853128 19.46317461 -128.03515625 40.03515625 Z " fill="#CFA54B" transform="translate(2710.25,2049.9375)"/>
<path d="M0 0 C0 24.09 0 48.18 0 73 C-4.76854249 72.20524292 -8.55467344 71.18923004 -13.0625 69.625 C-31.26710253 63.69531634 -52.07258818 60.87356332 -70 69 C-85.68276754 77.30512152 -94.13189353 89.52335941 -100 106 C-103.65049181 118.07237332 -104.15516545 129.71757395 -104.20532227 142.25024414 C-104.21491684 143.77864843 -104.22492781 145.30705015 -104.23532104 146.83544922 C-104.26220517 150.96080123 -104.28330332 155.0861645 -104.30332303 159.21155477 C-104.32528511 163.53171762 -104.35262349 167.85184646 -104.37937927 172.17198181 C-104.42916862 180.34212707 -104.47415813 188.51229135 -104.51740164 196.6824736 C-104.5761558 207.73036921 -104.64236823 218.77821999 -104.70815182 229.82607555 C-104.81151112 247.21735344 -104.90494331 264.60867016 -105 282 C-132.06 282 -159.12 282 -187 282 C-187 196.53 -187 111.06 -187 23 C-192.28 22.34 -197.56 21.68 -203 21 C-203.33 20.67 -203.66 20.34 -204 20 C-204 14.39 -204 8.78 -204 3 C-171.66 3 -139.32 3 -106 3 C-105.67 19.17 -105.34 35.34 -105 52 C-101.39817009 44.88761501 -101.39817009 44.88761501 -97.82226562 37.76220703 C-94.24982709 30.81319814 -90.07082107 24.92798133 -85 19 C-84.34346436 18.19933105 -83.68692871 17.39866211 -83.01049805 16.57373047 C-75.23572955 7.13964029 -65.43582763 0.25092718 -54 -4 C-53.19820312 -4.31839844 -52.39640625 -4.63679688 -51.5703125 -4.96484375 C-35.29729745 -10.46522422 -15.14770746 -7.57385373 0 0 Z " fill="#073B4F" transform="translate(4092,2343)"/>
<path d="M0 0 C0.73863281 0.64453125 1.47726563 1.2890625 2.23828125 1.953125 C17.17932157 15.88777401 25.63935066 36.13695786 27.27168846 56.36713791 C27.36427802 59.78662495 27.37198548 63.19416715 27.34057617 66.61474609 C27.34101425 67.89450821 27.34145233 69.17427032 27.34190369 70.49281311 C27.34275329 73.95274922 27.32529864 77.41236388 27.30418181 80.87222624 C27.2852393 84.50632248 27.2836509 88.14042866 27.28010559 91.77456665 C27.27083613 98.63424321 27.24629262 105.49377381 27.21605712 112.35338652 C27.18235284 120.17216324 27.1659871 127.99094748 27.15097082 135.80977893 C27.11973754 151.87327096 27.06707803 167.93661676 27 184 C27.68707031 184.06058594 28.37414063 184.12117188 29.08203125 184.18359375 C29.98308594 184.26738281 30.88414062 184.35117188 31.8125 184.4375 C33.15248047 184.55931641 33.15248047 184.55931641 34.51953125 184.68359375 C37 185 37 185 40 186 C40 190.29 40 194.58 40 199 C15.58 199 -8.84 199 -34 199 C-34.03738281 190.21117188 -34.07476563 181.42234375 -34.11328125 172.3671875 C-34.14743502 166.06861223 -34.18343216 159.77006848 -34.22207737 153.47152138 C-34.27181135 145.32592052 -34.31729044 137.18037133 -34.34643555 129.03466797 C-34.36953655 122.58213116 -34.40306735 116.12974355 -34.44870156 109.67732537 C-34.47247222 106.2663668 -34.49130597 102.8555545 -34.49761391 99.44451523 C-33.87045655 71.90274198 -33.87045655 71.90274198 -45.8515625 47.90625 C-54.40592886 39.86310075 -64.04303213 37.60594609 -75.51953125 37.72265625 C-86.58190112 38.60416945 -96.21935155 43.71730832 -103.75 51.75 C-112.35966505 62.217435 -114.29388964 73.2107381 -114.31884766 86.3828125 C-114.32889328 87.60317703 -114.3389389 88.82354156 -114.34928894 90.08088684 C-114.37476721 93.40472414 -114.39169108 96.72839301 -114.40471697 100.05228806 C-114.42041698 103.53433766 -114.44718505 107.01630236 -114.4727478 110.49829102 C-114.51941457 117.08182079 -114.55621697 123.66536676 -114.58942068 130.24897671 C-114.6314904 138.48505364 -114.68682483 146.72103478 -114.7421875 154.95703125 C-114.84081505 169.63796809 -114.91947449 184.31892794 -115 199 C-135.46 199 -155.92 199 -177 199 C-177 135.31 -177 71.62 -177 6 C-182.94 5.01 -182.94 5.01 -189 4 C-189 -0.29 -189 -4.58 -189 -9 C-164.58 -9 -140.16 -9 -115 -9 C-114.67 2.22 -114.34 13.44 -114 25 C-112.02 21.37 -110.04 17.74 -108 14 C-96.16651504 -2.58126616 -79.78858497 -13.71458747 -59.65234375 -17.43359375 C-38.31438165 -20.31902769 -16.17392051 -14.25897546 0 0 Z " fill="#CFA54B" transform="translate(2958,2034)"/>
<path d="M0 0 C0 18.15 0 36.3 0 55 C-3.63 54.01 -7.26 53.02 -11 52 C-25.1435723 48.20652531 -40.43958999 46.21979499 -54 53 C-64.94179007 59.69041343 -71.49171898 69.88835216 -74.86408997 82.13891602 C-77.64391946 95.33311762 -77.47839751 108.50178706 -77.51171875 121.9375 C-77.52859356 124.5153894 -77.5467475 127.09327071 -77.56611633 129.67114258 C-77.60851602 135.7196454 -77.63819333 141.76808303 -77.66143972 147.81668568 C-77.69136129 155.39350051 -77.74121889 162.9701692 -77.79101562 170.546875 C-77.87955304 184.03120485 -77.93843645 197.51546023 -78 211 C-98.13 211 -118.26 211 -139 211 C-139 147.31 -139 83.62 -139 18 C-143.29 17.34 -147.58 16.68 -152 16 C-152 11.71 -152 7.42 -152 3 C-127.91 3 -103.82 3 -79 3 C-78.505 20.82 -78.505 20.82 -78 39 C-75.36 33.72 -72.72 28.44 -70 23 C-67.71185623 19.69490345 -65.65334971 16.92916569 -63 14 C-62.30777344 13.18144531 -61.61554687 12.36289063 -60.90234375 11.51953125 C-45.46049448 -5.52063965 -20.75248682 -10.37624341 0 0 Z " fill="#CFA54B" transform="translate(3568,2022)"/>
</svg>
