<?xml version="1.0" encoding="UTF-8"?>
<svg version="1.1" xmlns="http://www.w3.org/2000/svg" width="4500" height="4500">
<path d="M0 0 C1.63296412 0.18111409 3.25667607 0.44570762 4.87298584 0.74052429 C5.93373447 0.93156392 6.99448311 1.12260355 8.08737564 1.31943226 C9.26736004 1.53846053 10.44734444 1.7574888 11.66308594 1.9831543 C12.90729183 2.20996982 14.15149773 2.43678534 15.43340683 2.67047405 C19.62424129 3.43647892 23.81237237 4.21667507 28 5 C28.71832315 5.13432198 29.43664631 5.26864396 30.17673683 5.4070363 C41.37351393 7.50311833 52.56389633 9.6326391 63.75347233 11.76677155 C68.24678425 12.62339854 72.74044774 13.4781775 77.23406982 14.33317566 C85.69425379 15.94316735 94.15413297 17.55475447 102.61389613 19.16695565 C112.26587316 21.00627676 121.91820035 22.84375715 131.5705533 24.6811043 C151.38075146 28.45206178 171.19052199 32.22526141 191 36 C190.68662034 38.70995769 190.37178449 41.41973313 190.05612183 44.12942505 C189.96825503 44.89056516 189.88038824 45.65170527 189.78985882 46.43591022 C189.09065148 52.42311791 188.2086284 58.36243437 187.1953125 64.3046875 C186.85659684 66.35091095 186.51891033 68.39730496 186.18212891 70.44384766 C185.92269501 72.01625214 185.92269501 72.01625214 185.65802002 73.62042236 C181.66271712 98.01542255 178.79393223 122.34964589 177 147 C176.91585846 148.14795044 176.91585846 148.14795044 176.83001709 149.3190918 C176.08769034 159.54033899 175.49698475 169.76373917 175 180 C174.94215332 181.11616699 174.88430664 182.23233398 174.82470703 183.38232422 C169.94188729 280.41568857 178.11459674 379.02702155 271 705 C271.4734082 706.06541016 271.94681641 707.13082031 272.43457031 708.22851562 C284.79430249 735.87459733 298.21080198 763.21143208 313.48046875 789.37109375 C315.06790141 792.11747468 316.61636789 794.88294881 318.15625 797.65625 C327.02488396 813.61142067 336.62729772 829.04557514 346.46484375 844.41796875 C385.66030591 905.67490882 421.03379901 969.71398399 451 1036 C451.42705231 1036.94178101 451.42705231 1036.94178101 451.86273193 1037.90258789 C489.41127698 1120.72635841 519.44342191 1207.01530295 609.921875 1805.55078125 C609.9908046 1806.63838619 609.9908046 1806.63838619 610.06112671 1807.74796295 C610.57387977 1815.86643034 611.06066632 1823.98575945 611.50708008 1832.1081543 C612.3214383 1846.85654515 613.17023035 1861.54472869 615.1875 1876.1875 C615.29259888 1876.97575165 615.39769775 1877.7640033 615.50598145 1878.57614136 C619.76724121 1910.46289197 626.07113111 1941.83097109 634 1973 C634.16608765 1973.65597168 634.33217529 1974.31194336 634.5032959 1974.98779297 C651.11095038 2040.41315566 677.25744976 2106.10945434 720 2159 C720.41443359 2159.51739746 720.82886719 2160.03479492 721.25585938 2160.56787109 C735.37298936 2178.06478295 751.51353717 2194.1692744 770 2207 C770.68916504 2207.48065918 771.37833008 2207.96131836 772.08837891 2208.45654297 C778.20747237 2212.69482034 784.2605693 2216.78879933 791 2220 C796.33642561 2213.05805952 801.00166703 2205.86659377 805.51782227 2198.37792969 C809.17599238 2192.3203812 812.93725332 2186.33634282 816.75 2180.375 C828.43903763 2162.07170901 839.89327513 2143.63066012 851.14599609 2125.05615234 C853.08880529 2121.85361277 855.03795723 2118.65499937 856.98828125 2115.45703125 C867.4408736 2098.30437384 877.72810884 2081.05694465 887.95379639 2063.76818848 C889.50027703 2061.15448191 891.04906301 2058.54214278 892.59765625 2055.9296875 C910.42991475 2025.82762385 927.84309041 1995.49134918 945 1965 C945.54833496 1964.02562988 946.09666992 1963.05125977 946.66162109 1962.04736328 C960.1094501 1938.1327893 973.37698946 1914.11999489 986.39794922 1889.97021484 C988.02472522 1886.95415924 989.65477744 1883.93989058 991.28515625 1880.92578125 C1004.48493612 1856.49787772 1017.49990614 1831.97078172 1030.2120409 1807.28539562 C1032.9101701 1802.04662315 1035.61494541 1796.81154222 1038.33618164 1791.5847168 C1047.84825671 1773.29850418 1057.12802539 1754.90070387 1066.33544922 1736.45947266 C1068.35499734 1732.41464865 1070.37820883 1728.37166941 1072.40233707 1724.32913589 C1080.68775869 1707.77819437 1088.9205461 1691.21021699 1096.82891846 1674.47479248 C1098.36732085 1671.22375784 1099.91863697 1667.97896576 1101.47006226 1664.73413086 C1112.85362925 1640.91764697 1124.0295693 1617.00950129 1135 1593 C1135.38714172 1592.15288452 1135.77428345 1591.30576904 1136.17315674 1590.4329834 C1160.61671087 1536.91941425 1183.95912256 1482.89862554 1206.04150391 1428.36694336 C1206.68004833 1426.7900997 1207.31904514 1425.21343915 1207.95849609 1423.63696289 C1232.95686094 1362.00613414 1256.12137726 1299.70620106 1277.9888916 1236.90118408 C1278.90531443 1234.27168232 1279.82442079 1231.64314456 1280.74511719 1229.01513672 C1317.82027998 1123.13985374 1348.14947502 1014.53904238 1418.84570312 579.58892822 C1418.99623109 577.06323806 1419.15532493 574.53822024 1419.31640625 572.01318359 C1421.06584951 544.10361217 1421.20925484 516.18185118 1421.24542618 488.2277298 C1421.24990077 485.37574669 1421.25759569 482.52378802 1421.26596069 479.67181396 C1421.3570698 443.70357463 1420.20974707 407.78786919 1417.1875 371.9375 C1417.10351959 370.91756958 1417.01953918 369.89763916 1416.93301392 368.84680176 C1410.78789891 294.55381856 1398.18055786 221.2546262 1378.359375 149.3828125 C1378.17019501 148.69606445 1377.98101501 148.00931641 1377.78610229 147.30175781 C1376.76065921 143.61621418 1375.68652721 139.95085061 1374.55664062 136.29589844 C1374.32027893 135.52325653 1374.08391724 134.75061462 1373.84039307 133.95455933 C1373.38526679 132.47499203 1372.92163646 130.99800483 1372.44818115 129.52420044 C1370.48988656 123.14434579 1370.48988656 123.14434579 1372 120 C1374.52774048 118.75588989 1374.52774048 118.75588989 1377.96337891 117.69189453 C1378.59224219 117.49210149 1379.22110548 117.29230844 1379.86902523 117.08646107 C1381.98353221 116.41916994 1384.10467102 115.77620029 1386.2265625 115.1328125 C1387.73530975 114.66205369 1389.24359622 114.18981591 1390.75144958 113.71620178 C1394.84785266 112.43413095 1398.95040909 111.17288716 1403.05434036 109.91515732 C1407.35696029 108.59263816 1411.65361455 107.25101751 1415.95092773 105.91137695 C1423.9781829 103.4120811 1432.01048755 100.92946395 1440.04500675 98.4536314 C1448.44728361 95.86386373 1456.84459547 93.25823328 1465.24102783 90.64958954 C1475.001237 87.61731068 1484.76201123 84.58691757 1494.52783203 81.57275391 C1495.21136623 81.36172028 1495.89490044 81.15068665 1496.5991478 80.93325806 C1502.13602785 79.22382436 1502.13602785 79.22382436 1504.71609497 78.42839813 C1512.72960946 75.95738475 1520.73307833 73.45706442 1528.72607422 70.92041016 C1530.35208081 70.40536265 1531.97809292 69.89033258 1533.60411072 69.37532043 C1536.72707043 68.38593999 1539.84813489 67.39084947 1542.96827698 66.3926239 C1544.38170184 65.94424955 1545.79518644 65.49606342 1547.20874023 65.0480957 C1548.44969955 64.65209671 1549.69065887 64.25609772 1550.96922302 63.84809875 C1554 63 1554 63 1557 63 C1586.15838948 153.4253413 1602.77737698 247.97416877 1614.6875 387 C1614.77904358 388.51421539 1614.77904358 388.51421539 1614.87243652 390.059021 C1615.28785534 397.03751386 1615.65560081 404.01767004 1616 411 C1616.0494577 411.95598083 1616.09891541 412.91196167 1616.14987183 413.89691162 C1617.25253881 435.799377 1617.18742405 457.71838334 1617.18530273 479.64257812 C1617.18522226 483.92484839 1617.19205292 488.20700987 1617.20581055 492.48925781 C1617.33411723 533.13699127 1616.15979354 573.70019015 1613.25 614.25 C1613.16763092 615.42084137 1613.08526184 616.59168274 1613.00039673 617.79800415 C1605.39092321 725.18246007 1588.84518537 831.53720525 1522 1115 C1521.58068207 1116.47714478 1521.58068207 1116.47714478 1521.15289307 1117.98413086 C1494.33882399 1212.29875357 1463.32793016 1305.43466005 1403 1464 C1402.56747925 1465.09420258 1402.56747925 1465.09420258 1402.1262207 1466.21051025 C1398.45781155 1475.48998998 1394.75060327 1484.75342067 1391 1494 C1390.71699036 1494.69774536 1390.43398071 1495.39549072 1390.14239502 1496.11437988 C1373.73404541 1536.53770244 1356.73741211 1576.70206345 1339.06707764 1616.58978271 C1338.01608231 1618.96367475 1336.9669266 1621.33837037 1335.91845703 1623.71337891 C1322.23671516 1654.70223577 1308.17861323 1685.51354946 1293.79052734 1716.18066406 C1292.5722618 1718.77783451 1291.35662019 1721.37621057 1290.14306641 1723.97558594 C1280.47652418 1744.68072588 1270.56830135 1765.25937461 1260.52474976 1785.78411865 C1257.88654921 1791.17807035 1255.26227787 1796.57857991 1252.6484375 1801.984375 C1245.37069458 1817.03198185 1238.02822038 1832.0446262 1230.5625 1847 C1230.20308319 1847.72142181 1229.84366638 1848.44284363 1229.47335815 1849.18612671 C1225.04013704 1858.07797898 1220.49363566 1866.90208365 1215.84812927 1875.68486023 C1212.80300976 1881.45031615 1209.81164375 1887.24123549 1206.8515625 1893.05078125 C1206.42578918 1893.88639587 1206.00001587 1894.7220105 1205.56134033 1895.58294678 C1204.69309405 1897.28770263 1203.82500235 1898.99253722 1202.95706177 1900.69744873 C1196.51791097 1913.3385363 1190.06074743 1925.95264026 1183.18408203 1938.36254883 C1179.3248035 1945.34190456 1175.65204787 1952.41029473 1172 1959.5 C1165.84417947 1971.43490786 1159.48970384 1983.24393435 1153 1995 C1151.75252145 1997.26427735 1150.50513008 1999.52860273 1149.2578125 2001.79296875 C1146.21439595 2007.31596334 1143.16594238 2012.83616452 1140.1162262 2018.35568237 C1137.69942225 2022.73082009 1135.28798558 2027.10888618 1132.87890625 2031.48828125 C1124.68391623 2046.38161033 1116.41387945 2061.2288604 1108 2076 C1107.38157227 2077.08603516 1106.76314453 2078.17207031 1106.12597656 2079.29101562 C1087.89291482 2111.29189949 1069.64472761 2143.29772061 1050.44308472 2174.73013306 C1044.91640111 2183.77941303 1039.52297475 2192.89934677 1034.1875 2202.0625 C1029.07245918 2210.84319766 1023.8658125 2219.54434306 1018.38549805 2228.10375977 C1014.49680831 2234.18037748 1010.73617478 2240.32858091 1007 2246.5 C1000.78857381 2256.74618428 994.43654571 2266.89409731 988 2277 C986.87749008 2278.76555247 985.75509804 2280.53117989 984.6328125 2282.296875 C982.27086595 2286.01210293 979.90572054 2289.72527197 977.5390625 2293.4375 C975.27335391 2296.9934895 973.0180163 2300.55563922 970.7734375 2304.125 C961.59562161 2318.69021596 952.05590567 2333.00369511 942.47659302 2347.30622864 C938.90982672 2352.63367344 935.35813066 2357.97096993 931.8125 2363.3125 C921.30530184 2379.13524763 910.74210849 2394.90074838 899.80712891 2410.43261719 C897.32261376 2413.96236067 894.84856798 2417.49939556 892.37402344 2421.03613281 C891.19159867 2422.72594848 890.00867845 2424.4154176 888.82519531 2426.10449219 C884.19117756 2432.71872069 879.58558997 2439.35210766 875 2446 C866.89963073 2445.27283045 859.01289507 2443.72589009 851.046875 2442.12109375 C849.58222203 2441.82776626 848.11756121 2441.53447793 846.65289307 2441.2412262 C843.57935297 2440.62462861 840.50653549 2440.00455641 837.43408203 2439.38256836 C834.34844146 2438.75847647 831.26161122 2438.14096796 828.17333984 2437.5300293 C747.33478327 2421.53008046 675.18882627 2388.82590996 614.53125 2332.41357422 C612.95904729 2330.96219448 611.37219307 2329.52845331 609.78125 2328.09765625 C602.5785831 2321.59195235 595.88652789 2314.7752006 589.40234375 2307.55517578 C588.06052108 2306.06711687 586.70248678 2304.59372465 585.34375 2303.12109375 C579.64508664 2296.93874754 574.22791111 2290.58358117 569 2284 C568.49484863 2283.36739258 567.98969727 2282.73478516 567.46923828 2282.08300781 C542.81554311 2251.1293285 522.31741986 2217.73828233 504.30615234 2182.54931641 C503.18741228 2180.36578674 502.05863239 2178.18794098 500.92578125 2176.01171875 C460.92768262 2098.45846954 437.51076022 2011.06298828 422.6875 1914.375 C422.51149765 1913.17948013 422.51149765 1913.17948013 422.3319397 1911.95980835 C418.31452698 1884.39357611 416.55184679 1856.62324057 414.98077393 1828.83285522 C410.64283903 1752.35008498 403.9668974 1676.08696592 279.83538818 1133.8661499 C278.97316316 1131.94004996 278.11450116 1130.01238974 277.25634766 1128.08447266 C265.09759714 1100.80170625 252.50669702 1073.59768886 238.26171875 1047.33203125 C236.82990404 1044.68561211 235.41503877 1042.0304254 234 1039.375 C226.93283983 1026.16173464 219.53691518 1013.17138497 211.92138672 1000.26757812 C209.84265688 996.73241674 207.78127537 993.18751571 205.72265625 989.640625 C198.51770227 977.24106918 191.22016527 964.95725947 183.30810547 952.99121094 C169.00094959 931.21271833 155.73815118 908.72541189 143 886 C142.39575195 884.92298828 141.79150391 883.84597656 141.16894531 882.73632812 C126.91378306 857.26481145 113.26569925 831.49708218 101 805 C100.47615723 803.86997559 99.95231445 802.73995117 99.41259766 801.57568359 C85.84026136 772.1788502 73.35668904 742.32256361 62 712 C60.46153958 715.60872729 59.39991522 719.13558649 58.51391602 722.95507812 C58.23425491 724.15080948 57.95459381 725.34654083 57.66645813 726.57850647 C57.51855646 727.21918627 57.37065479 727.85986607 57.21827126 728.5199604 C56.74143249 730.58527719 56.25980972 732.64942952 55.77702332 734.71336365 C55.07385146 737.72103111 54.37251694 740.72911843 53.67248535 743.73751831 C51.76141019 751.94439692 49.82903706 760.14627396 47.89453125 768.34765625 C47.6936578 769.19935457 47.49278435 770.05105289 47.28582382 770.92856026 C28.00000016 852.64369066 6.93374557 933.95707872 -63 1181 C-63.19849045 1181.659645 -63.3969809 1182.31929001 -63.60148621 1182.99892426 C-74.43282806 1218.98138203 -85.55965145 1254.87020625 -96.94512939 1290.68109131 C-97.98925557 1293.96619513 -99.0316076 1297.25185786 -100.07373047 1300.53759766 C-117.65807401 1355.93546475 -135.78660693 1411.21411894 -155.22509766 1465.99169922 C-156.81731191 1470.47935525 -158.39779016 1474.9710754 -159.97627258 1479.46357727 C-190.10150451 1565.19123554 -222.30853097 1650.1470407 -277.95489502 1786.50866699 C-279.05855071 1789.13957384 -280.16003908 1791.77138112 -281.26123047 1794.40332031 C-292.25835898 1820.67598133 -303.51786152 1846.82314861 -315.05389404 1872.86358643 C-315.92254789 1874.82510444 -316.78998992 1876.78715112 -317.65673828 1878.74951172 C-320.79895266 1885.86159096 -323.95929105 1892.96537159 -327.1340332 1900.06298828 C-328.08961051 1902.20044256 -329.04384973 1904.33849175 -329.99804688 1906.4765625 C-339.52397962 1927.81246327 -349.23489863 1949.04582443 -359.24378967 1970.15936279 C-361.78858987 1975.53493279 -364.28378303 1980.93255645 -366.76953125 1986.33569336 C-374.40552629 2002.92344271 -382.41609966 2019.32165595 -390.44422913 2035.72207642 C-393.05870031 2041.06588691 -395.65895146 2046.41634545 -398.24609375 2051.7734375 C-398.58194992 2052.4688414 -398.91780609 2053.1642453 -399.26383972 2053.88072205 C-399.59579849 2054.56807938 -399.92775726 2055.25543671 -400.26977539 2055.96362305 C-410.21279238 2076.55073785 -420.20060784 2097.13625071 -430.94726562 2117.31860352 C-433.74204175 2122.57692723 -436.47798219 2127.86344924 -439.19140625 2133.1640625 C-439.75748848 2134.26982132 -439.75748848 2134.26982132 -440.33500671 2135.3979187 C-441.11743388 2136.92643115 -441.89985877 2138.45494476 -442.68228149 2139.98345947 C-448.50062954 2151.34504087 -454.35606198 2162.67269773 -460.52514648 2173.84912109 C-464.39092802 2180.85431754 -468.15242691 2187.91219852 -471.89984131 2194.9810791 C-477.48263555 2205.50698267 -483.16194329 2215.96144672 -489.06835938 2226.31054688 C-493.08779049 2233.35811382 -497.01198395 2240.45488852 -500.91238403 2247.56866455 C-507.27561652 2259.1691418 -513.80519631 2270.65427803 -520.515625 2282.05859375 C-523.53136741 2287.18484586 -526.4953168 2292.33935854 -529.45043945 2297.50073242 C-537.00498116 2310.68329379 -544.81253443 2323.69721525 -552.73855591 2336.65794373 C-555.31536145 2340.87294595 -557.8779743 2345.09634176 -560.43359375 2349.32421875 C-568.02659473 2361.88125611 -575.68708448 2374.38721335 -583.57617188 2386.76123047 C-585.06259759 2389.09842591 -586.54026436 2391.4409616 -588.015625 2393.78515625 C-588.52569092 2394.59525146 -589.03575684 2395.40534668 -589.5612793 2396.23999023 C-590.50081003 2397.73263549 -591.43985401 2399.22558737 -592.37817383 2400.71899414 C-601.5815986 2415.31712659 -611.07250361 2429.73368161 -620.56079102 2444.14746094 C-621.81138976 2446.04833199 -623.06074034 2447.95002481 -624.30883789 2449.85253906 C-631.48413818 2460.78972934 -638.74870828 2471.63729982 -646.35595703 2482.27954102 C-649.10514684 2486.1280815 -651.77517424 2490.02858374 -654.4375 2493.9375 C-659.97822686 2502.03362686 -665.72534201 2509.97353523 -671.48925781 2517.91162109 C-673.25752613 2520.35599201 -675.00818293 2522.81241141 -676.75488281 2525.2722168 C-687.04681237 2539.76463041 -697.67733549 2554.0028247 -708.52441406 2568.08349609 C-709.9018774 2569.8725575 -711.27588885 2571.66419802 -712.6484375 2573.45703125 C-725.42180072 2590.13115243 -738.54990203 2606.4813078 -752.17236328 2622.47119141 C-754.96221568 2625.75088879 -757.68116156 2629.0787577 -760.375 2632.4375 C-764.48317359 2637.49144017 -768.86020864 2642.25221914 -773.32348633 2646.99072266 C-776.87478748 2650.76230437 -780.2877927 2654.60470763 -783.53515625 2658.64453125 C-785.38182481 2660.35331523 -786.49999027 2660.73918783 -789 2661 C-790.79388428 2659.80065918 -790.79388428 2659.80065918 -792.63183594 2657.91992188 C-793.67377106 2656.87257874 -793.67377106 2656.87257874 -794.73675537 2655.80407715 C-795.84932709 2654.64809021 -795.84932709 2654.64809021 -796.984375 2653.46875 C-797.75879944 2652.68487915 -798.53322388 2651.9010083 -799.33111572 2651.09338379 C-801.81607727 2648.5737344 -804.28344498 2646.03765945 -806.75 2643.5 C-809.20552087 2640.99430738 -811.66456962 2638.49215976 -814.1260376 2635.99230957 C-815.65739222 2634.43483722 -817.18477569 2632.87344664 -818.7074585 2631.30749512 C-822.65167803 2627.27285048 -826.6957106 2623.47525227 -830.97271729 2619.79748535 C-834.74918376 2616.44909042 -838.26427217 2612.83672646 -841.8125 2609.25 C-842.62565674 2608.43305664 -843.43881348 2607.61611328 -844.27661133 2606.77441406 C-847.7217734 2603.31304958 -851.1609029 2599.84571409 -854.60058594 2596.37890625 C-857.12746508 2593.83384812 -859.65741315 2591.29186869 -862.1875 2588.75 C-862.95231689 2587.97688477 -863.71713379 2587.20376953 -864.50512695 2586.40722656 C-868.56483875 2582.32925386 -872.71753006 2578.45223324 -877.07714844 2574.69799805 C-880.28502225 2571.86524508 -883.27671322 2568.82654638 -886.28125 2565.78125 C-886.93903442 2565.11967896 -887.59681885 2564.45810791 -888.27453613 2563.77648926 C-891.05066558 2560.98421856 -893.82071537 2558.18594584 -896.59130859 2555.38818359 C-898.6316708 2553.32959102 -900.67514331 2551.27412097 -902.71875 2549.21875 C-903.33045044 2548.59875122 -903.94215088 2547.97875244 -904.5723877 2547.33996582 C-908.87490556 2543.01353049 -913.37631147 2538.97900796 -918 2535 C-919.53937274 2533.62463958 -921.06523417 2532.23358401 -922.5625 2530.8125 C-923.58537109 2529.86310547 -923.58537109 2529.86310547 -924.62890625 2528.89453125 C-926 2527 -926 2527 -926.02734375 2525.109375 C-924.54617211 2522.06818608 -922.32978941 2519.83940102 -920 2517.4375 C-915.57399796 2512.74709862 -911.41672662 2507.92873611 -907.37109375 2502.90234375 C-904.68168829 2499.61036968 -901.90829604 2496.39995032 -899.125 2493.1875 C-893.65636684 2486.85220548 -888.46157436 2480.33413948 -883.33691406 2473.71923828 C-882.04268084 2472.0548865 -880.73858034 2470.39893288 -879.4296875 2468.74609375 C-866.25698905 2452.10676529 -853.50640846 2435.14440067 -841 2418 C-840.20263428 2416.90921143 -840.20263428 2416.90921143 -839.38916016 2415.79638672 C-830.05161859 2403.00857618 -820.99739758 2390.02869909 -812 2377 C-811.4647168 2376.22672363 -810.92943359 2375.45344727 -810.37792969 2374.65673828 C-794.51395862 2351.72217378 -779.05727737 2328.47163825 -764 2305 C-763.44441406 2304.13439453 -762.88882812 2303.26878906 -762.31640625 2302.37695312 C-720.11993536 2236.54481981 -680.70846451 2168.86099381 -643.63134766 2100.02441406 C-641.96097494 2096.92765004 -640.28378453 2093.83465302 -638.60546875 2090.7421875 C-631.76515028 2078.11761325 -625.06523189 2065.42888533 -618.50048828 2052.65942383 C-615.563327 2046.94671541 -612.6067856 2041.24681698 -609.59996128 2035.57052231 C-604.07097114 2025.12212112 -598.7218776 2014.59134571 -593.44140625 2004.015625 C-592.56293607 2002.25936191 -591.68434741 2000.50315809 -590.8056488 1998.74700928 C-588.98005752 1995.09728527 -587.15588161 1991.44685853 -585.33276367 1987.79589844 C-583.0317003 1983.18809006 -580.72702524 1978.58209911 -578.42138481 1973.97657967 C-565.03590488 1947.23840799 -565.03590488 1947.23840799 -552.07907104 1920.29077148 C-551.02865103 1918.06082358 -549.97252107 1915.83367996 -548.91430664 1913.60742188 C-547.01856569 1909.61686539 -545.13172633 1905.62218249 -543.25 1901.625 C-542.91650543 1900.91666016 -542.58301086 1900.20832031 -542.2394104 1899.47851562 C-535.70496249 1885.58699471 -529.32016948 1871.630424 -523.0025177 1857.63917542 C-520.9062466 1852.99813678 -518.80016489 1848.36167197 -516.68800354 1843.72784424 C-498.82870862 1804.54398621 -481.70090223 1765.04397029 -464.99255371 1725.35638428 C-464.03982245 1723.09454096 -463.08506238 1720.83356417 -462.12988281 1718.57275391 C-438.61987095 1662.86599592 -416.39476416 1606.54993106 -395 1550 C-394.33710601 1548.25080274 -393.67418342 1546.50161632 -393.01123047 1544.75244141 C-388.63062156 1533.1844179 -384.30070738 1521.59794521 -380 1510 C-379.65686768 1509.07523865 -379.31373535 1508.15047729 -378.96020508 1507.19769287 C-367.6944277 1476.82548954 -356.71254003 1446.35998175 -345.98193359 1415.79473877 C-345.04177291 1413.11889232 -344.09947341 1410.44381117 -343.15625 1407.76904297 C-317.57135612 1335.19859252 -293.49051063 1262.11828393 -270.73841667 1188.61265945 C-269.44724647 1184.44185127 -268.15269534 1180.27210749 -266.85595703 1176.10302734 C-243.55986328 1101.194831 -221.88837029 1025.77582387 -165.55509949 814.18219757 C-165.18368033 812.72208098 -164.81214835 811.26199308 -164.44050598 809.80193329 C-141.04784381 717.89793173 -119.67250375 625.52500777 -84 459 C-83.79838005 458.02340172 -83.5967601 457.04680344 -83.38903046 456.04061127 C-62.55616569 355.08232406 -43.47123566 253.80731808 -8.08911133 41.46411133 C-2.63206475 2.63206475 -2.63206475 2.63206475 0 0 Z " fill="#CFA54B" transform="translate(1788,901)"/>
<path d="M0 0 C0.81313587 2.17266263 1.51883569 4.38565566 2.1796875 6.609375 C2.49239342 7.65355339 2.49239342 7.65355339 2.81141663 8.71882629 C3.50862589 11.0598974 4.19267109 13.40455119 4.875 15.75 C5.11509796 16.56830292 5.35519592 17.38660583 5.60256958 18.22970581 C33.34168602 112.84834558 51.97952444 209.80440681 69 406 C69.04034268 406.89066949 69.08068537 407.78133898 69.12225056 408.69899845 C69.86963778 425.52419241 70.17430477 442.31950062 70.203125 459.16015625 C70.21010435 461.70432552 70.21714531 464.24849463 70.22424316 466.79266357 C70.24187973 474.19136422 70.24823079 481.59002922 70.24956322 488.98874712 C70.25000179 491.07098824 70.25086736 493.15322886 70.25178528 495.23546982 C70.26638012 535.76861263 70.00931163 576.19706037 67.22784424 616.65362549 C66.99635577 620.05352322 66.77760043 623.45403987 66.56201172 626.85498047 C60.7078865 718.52153738 49.00247752 809.80792676 -102.96942139 1403.10223389 C-104.06579978 1406.18501487 -105.16012609 1409.26852026 -106.25439453 1412.35205078 C-116.55002727 1441.34313331 -127.02755559 1470.25781106 -138 1499 C-138.3272406 1499.85775024 -138.6544812 1500.71550049 -138.99163818 1501.59924316 C-170.29012398 1583.59076085 -204.13028423 1664.53620757 -239.94989014 1744.65045166 C-241.03147873 1747.07043148 -242.11177395 1749.49098573 -243.19189453 1751.91162109 C-252.65161744 1773.10317942 -262.30282229 1794.18918793 -272.24372864 1815.15922546 C-274.78893049 1820.53566655 -277.28447407 1825.93418613 -279.77075195 1831.33813477 C-286.29157653 1845.50427766 -293.07675154 1859.53252352 -299.9387207 1873.53588867 C-300.70140044 1875.09290397 -301.46401391 1876.64995172 -302.2265625 1878.20703125 C-302.61638306 1879.00259933 -303.00620361 1879.79816742 -303.40783691 1880.61784363 C-305.39313556 1884.67861492 -307.36049573 1888.74666952 -309.29370117 1892.83251953 C-317.99599649 1911.21794652 -327.11964066 1929.39186609 -336.22485352 1947.58007812 C-338.59275129 1952.31016274 -340.95703383 1957.04204366 -343.32026005 1961.77446365 C-345.17466391 1965.48692577 -347.03101219 1969.1984131 -348.88790703 1972.90962982 C-349.75942685 1974.65201438 -350.63037957 1976.39468274 -351.50068855 1978.13767242 C-356.79837995 1988.7443372 -362.20901896 1999.28232574 -367.76026917 2009.75865173 C-369.88888853 2013.77801823 -371.97939535 2017.81616641 -374.0546875 2021.86328125 C-374.38746861 2022.51200667 -374.72024973 2023.1607321 -375.06311512 2023.82911587 C-375.6774657 2025.02714215 -376.29171662 2026.22521953 -376.90588379 2027.42333984 C-382.3684205 2038.07181172 -387.92599619 2048.65356821 -393.70263672 2059.13598633 C-397.22775745 2065.54404536 -400.63533984 2072.00638552 -404 2078.5 C-408.85899183 2087.86995453 -413.86015639 2097.1530856 -418.9375 2106.40625 C-421.03622271 2110.23142841 -423.11835538 2114.06499125 -425.1875 2117.90625 C-431.0105615 2128.71636718 -436.91781963 2139.46864701 -442.98413086 2150.14428711 C-447.20223941 2157.5709076 -451.36036172 2165.02938711 -455.5 2172.5 C-466.50354863 2192.33951891 -477.72352012 2212.04695676 -489.08398438 2231.68408203 C-491.00264552 2235.00457842 -492.91620322 2238.32796291 -494.828125 2241.65234375 C-502.18447702 2254.43955334 -509.60664285 2267.18383223 -517.140625 2279.8671875 C-518.85433019 2282.75456473 -520.56484881 2285.64379676 -522.27427673 2288.53370667 C-532.42036105 2305.68447948 -542.66496766 2322.77077008 -553.04052734 2339.78369141 C-554.91291796 2342.85706219 -556.77981321 2345.93368812 -558.64453125 2349.01171875 C-566.35435761 2361.72982084 -574.19172241 2374.36367029 -582.09570312 2386.96191406 C-584.66225802 2391.05655626 -587.22063865 2395.15627982 -589.77929688 2399.25585938 C-596.2896307 2409.68438797 -602.81457495 2420.10339717 -609.40283203 2430.48291016 C-610.509239 2432.22657506 -611.6142911 2433.97110014 -612.71826172 2435.71630859 C-623.05147372 2452.04027346 -633.69602875 2468.14005705 -644.44650269 2484.19087219 C-648.20870343 2489.81031533 -651.95438101 2495.44059909 -655.6953125 2501.07421875 C-676.8409752 2532.90633196 -676.8409752 2532.90633196 -687.44335938 2547.80615234 C-690.31681549 2551.85585068 -693.15554633 2555.92990649 -696 2560 C-697.16911839 2561.6706796 -698.3383886 2563.34125298 -699.5078125 2565.01171875 C-700.08563477 2565.83720215 -700.66345703 2566.66268555 -701.25878906 2567.51318359 C-702.98182936 2569.97404849 -704.7056522 2572.43436336 -706.4296875 2574.89453125 C-712.63561076 2583.75207626 -718.82683281 2592.61958929 -725 2601.5 C-731.74072179 2611.19686646 -738.5048139 2620.87709183 -745.28222656 2630.54833984 C-748.1896209 2634.69786428 -751.09468001 2638.84902306 -754 2643 C-755.16665575 2644.66667431 -756.33332241 2646.33334098 -757.5 2648 C-758.0775 2648.825 -758.655 2649.65 -759.25 2650.5 C-761 2653 -762.75 2655.5 -764.5 2658 C-765.07766113 2658.8252417 -765.65532227 2659.6504834 -766.25048828 2660.50073242 C-767.41548364 2662.16498828 -768.5805226 2663.82921361 -769.74560547 2665.4934082 C-772.68820411 2669.69670923 -775.63000904 2673.90056181 -778.5703125 2678.10546875 C-780.90676802 2681.44677918 -783.24544679 2684.78651503 -785.5859375 2688.125 C-787.89004608 2691.41168493 -790.18570722 2694.70406592 -792.4765625 2698 C-793.56758424 2699.56258665 -794.65872468 2701.12509043 -795.75 2702.6875 C-796.25160645 2703.41283936 -796.75321289 2704.13817871 -797.27001953 2704.88549805 C-800.77334215 2709.88667108 -800.77334215 2709.88667108 -803 2711 C-805.88532172 2710.56186075 -808.70971389 2710.0472457 -811.56704712 2709.4657135 C-812.46497714 2709.2884526 -813.36290717 2709.11119169 -814.28804719 2708.92855924 C-817.31786035 2708.32868224 -820.3456455 2707.71912515 -823.37353516 2707.10961914 C-825.5385194 2706.67884558 -827.70361723 2706.24864259 -829.86882019 2705.81896973 C-835.77483977 2704.64503469 -841.67910455 2703.46248559 -847.58302355 2702.27803731 C-852.52783061 2701.28684333 -857.47348059 2700.29989312 -862.41914117 2699.31296819 C-874.79198186 2696.84388329 -887.16317998 2694.36667976 -899.53362958 2691.88565265 C-909.54286566 2689.87840854 -919.5535759 2687.87866617 -929.56542969 2685.88452148 C-941.22419618 2683.56234619 -952.88186801 2681.23476279 -964.53809392 2678.89986128 C-970.69431244 2677.66671555 -976.8509186 2676.43561204 -983.00868607 2675.21022224 C-1048.17675521 2662.23442369 -1048.17675521 2662.23442369 -1077.9375 2652.5625 C-1079.40977697 2652.09081523 -1080.88210917 2651.61930285 -1082.35449219 2651.14794922 C-1161.19100692 2625.77631934 -1235.23493197 2585.92126415 -1298.30297852 2531.99365234 C-1301.78126059 2529.01958511 -1305.30955335 2526.11986838 -1308.875 2523.25 C-1312.5433215 2520.26650263 -1315.94694015 2517.18761457 -1319.22010803 2513.77894592 C-1320.98376156 2512.01622981 -1322.81290466 2510.39795137 -1324.70874023 2508.77905273 C-1328.97204183 2505.07252628 -1332.98517566 2501.15949881 -1336.97265625 2497.16015625 C-1337.69940048 2496.43436874 -1338.42614471 2495.70858124 -1339.1749115 2494.96080017 C-1340.69962296 2493.43676444 -1342.2230915 2491.91148431 -1343.74536133 2490.38500977 C-1346.05633891 2488.06867537 -1348.37260771 2485.75772922 -1350.68945312 2483.44726562 C-1352.1800082 2481.95604966 -1353.670253 2480.46452347 -1355.16015625 2478.97265625 C-1355.84263931 2478.29219742 -1356.52512238 2477.61173859 -1357.22828674 2476.91065979 C-1361.6838336 2472.43364967 -1365.88669081 2467.79189157 -1370 2463 C-1371.01055405 2461.84403286 -1372.02209428 2460.68892614 -1373.03515625 2459.53515625 C-1386.72394504 2443.86102199 -1399.66379868 2427.76128996 -1412 2411 C-1412.80920898 2409.90896973 -1412.80920898 2409.90896973 -1413.63476562 2408.79589844 C-1466.47575598 2337.49675392 -1505.69530917 2257.02656181 -1596.57568359 1868.06298828 C-1601.01864102 1793.82763095 -1606.55922481 1719.72871479 -1640.86499023 1475.53173828 C-1641.16981827 1473.86673279 -1641.16981827 1473.86673279 -1641.48080444 1472.16809082 C-1641.85589293 1470.12385953 -1642.23441982 1468.08025433 -1642.61734009 1466.03747559 C-1643.71860542 1460.03881929 -1644.47276117 1454.07494176 -1645 1448 C-1637.00092447 1445.92950374 -1628.98752459 1444.11604073 -1620.88061523 1442.52319336 C-1619.73183395 1442.29497894 -1618.58305267 1442.06676453 -1617.39945984 1441.83163452 C-1613.61973111 1441.08151358 -1609.83917781 1440.33564086 -1606.05859375 1439.58984375 C-1603.37285742 1439.05815217 -1600.68729492 1438.52558484 -1598.00172424 1437.99305725 C-1592.3559476 1436.87402283 -1586.70974615 1435.7571547 -1581.06323242 1434.6418457 C-1573.2966879 1433.10778225 -1565.5308987 1431.5699246 -1557.76527667 1430.03119922 C-1542.80546669 1427.06719964 -1527.84409745 1424.11113748 -1512.88170922 1421.16018212 C-1508.3189186 1420.26027377 -1503.75626954 1419.35965022 -1499.19366455 1418.45880127 C-1493.10302748 1417.25649322 -1487.01197935 1416.05629043 -1480.92057991 1414.85785103 C-1478.68007314 1414.4167913 -1476.43968798 1413.97511328 -1474.19943047 1413.53278923 C-1471.15031336 1412.93094581 -1468.10074105 1412.33146782 -1465.05102539 1411.73266602 C-1463.70511291 1411.46623511 -1463.70511291 1411.46623511 -1462.33201027 1411.19442177 C-1456.22860919 1410 -1456.22860919 1410 -1454 1410 C-1438.42603867 1485.56733263 -1427.45969774 1562.15953652 -1401.99655533 1842.45154953 C-1400.67617847 1866.06033523 -1399.17685657 1889.55760969 -1396 1913 C-1395.79473877 1914.5460585 -1395.58949855 1916.09211978 -1395.38427734 1917.63818359 C-1387.5049055 1976.37606529 -1374.55607659 2034.69953035 -1356 2091 C-1355.76408142 2091.72068665 -1355.52816284 2092.44137329 -1355.28509521 2093.18389893 C-1339.53223486 2141.30510836 -1320.07148165 2188.6686198 -1294.48339844 2232.44189453 C-1293.10991364 2234.81045505 -1291.77093054 2237.19425513 -1290.4453125 2239.58984375 C-1274.74406763 2267.75122263 -1255.61196105 2294.2590191 -1235 2319 C-1234.2869873 2319.86165771 -1234.2869873 2319.86165771 -1233.55957031 2320.74072266 C-1223.07346218 2333.4025698 -1211.85242944 2345.2372113 -1200.25 2356.875 C-1199.75431519 2357.37336365 -1199.25863037 2357.87172729 -1198.7479248 2358.38519287 C-1193.01269443 2364.14391079 -1187.19880054 2369.73919876 -1181 2375 C-1180.03578125 2375.845625 -1179.0715625 2376.69125 -1178.078125 2377.5625 C-1168.42842031 2385.87937255 -1158.26607636 2393.46472042 -1148 2401 C-1146.93289795 2401.79108154 -1146.93289795 2401.79108154 -1145.84423828 2402.59814453 C-1126.18327074 2417.13675068 -1104.84631999 2429.09049152 -1083 2440 C-1082.13487793 2440.43650879 -1081.26975586 2440.87301758 -1080.37841797 2441.32275391 C-1053.45582323 2454.84287891 -1024.6455801 2465.17228018 -995.359375 2472.2109375 C-994.14475082 2472.50307632 -992.93012665 2472.79521515 -991.67869568 2473.09620667 C-974.82268367 2477.09565528 -957.8157398 2480.41778783 -940.82592773 2483.79125977 C-935.9616844 2484.75715744 -931.09964649 2485.73370792 -926.23810673 2486.71311092 C-922.45141386 2487.47478014 -918.66364192 2488.23096447 -914.87551689 2488.98547554 C-913.07988106 2489.34380657 -911.28458184 2489.70382892 -909.48964119 2490.06562614 C-907.00206276 2490.56619263 -904.51312297 2491.05933139 -902.02368164 2491.55053711 C-901.29600082 2491.69850235 -900.56832001 2491.84646759 -899.81858826 2491.99891663 C-895.82752719 2492.7773136 -892.06624566 2493.28094633 -888 2493 C-886.23983242 2491.61913544 -886.23983242 2491.61913544 -885.0625 2489.546875 C-884.56758057 2488.792854 -884.07266113 2488.03883301 -883.56274414 2487.26196289 C-883.04703857 2486.43301514 -882.53133301 2485.60406738 -882 2484.75 C-880.85434006 2482.99252687 -879.70715525 2481.236047 -878.55859375 2479.48046875 C-877.97190918 2478.57087402 -877.38522461 2477.6612793 -876.78076172 2476.72412109 C-873.97531702 2472.43249072 -871.02011746 2468.25003832 -868.0625 2464.0625 C-866.88372775 2462.38308395 -865.70534401 2460.70339514 -864.52734375 2459.0234375 C-863.65118408 2457.77578613 -863.65118408 2457.77578613 -862.75732422 2456.50292969 C-858.09984942 2449.86936042 -853.4534211 2443.22807174 -848.80957031 2436.58496094 C-846.98864016 2433.98377254 -845.16243675 2431.3863425 -843.3359375 2428.7890625 C-833.01348964 2414.07292323 -823.03192155 2399.14105231 -813.09484863 2384.16339111 C-810.05604197 2379.58455635 -807.00529583 2375.01392476 -803.9453125 2370.44921875 C-797.01968669 2360.11342237 -790.12546576 2349.77305046 -783.59765625 2339.1796875 C-780.23878737 2333.74229059 -776.76657249 2328.37718163 -773.3125 2323 C-765.4406856 2310.72898498 -757.69440954 2298.38285842 -750 2286 C-749.4421582 2285.1032959 -748.88431641 2284.2065918 -748.30957031 2283.28271484 C-740.42901082 2270.61068164 -732.64231318 2257.88300494 -724.89941406 2245.12646484 C-723.25100051 2242.41315071 -721.59999004 2239.70143937 -719.94750977 2236.99060059 C-704.69227925 2211.96343104 -689.80001498 2186.72517364 -675.00341797 2161.42480469 C-673.13010483 2158.22241172 -671.25466975 2155.02127057 -669.37890625 2151.8203125 C-657.4022547 2131.36118316 -645.63554401 2110.78452457 -634.08032227 2090.08447266 C-630.76306784 2084.14206306 -627.42346144 2078.21324156 -624.0612793 2072.29614258 C-618.5456265 2062.58590673 -613.16422395 2052.81324382 -607.87475586 2042.97802734 C-604.17572737 2036.11801087 -600.36648522 2029.32928487 -596.5 2022.5625 C-591.37141268 2013.5699191 -586.53343741 2004.45210892 -581.79589844 1995.24829102 C-578.37468973 1988.61059201 -574.85979519 1982.03680551 -571.25 1975.5 C-565.3927378 1964.87004383 -559.84162609 1954.08864157 -554.31347656 1943.28515625 C-550.59285616 1936.01673039 -546.83779758 1928.76868572 -543.02734375 1921.546875 C-538.36215659 1912.70344783 -533.75139717 1903.8336099 -529.1875 1894.9375 C-528.78201935 1894.14738525 -528.3765387 1893.35727051 -527.95877075 1892.54321289 C-519.8407244 1876.70890586 -511.85058849 1860.81059918 -503.88751602 1844.89796829 C-502.95305626 1843.03107872 -502.01791068 1841.16453412 -501.08261108 1839.29806519 C-493.62932127 1824.42023836 -486.31197675 1809.48619492 -479.17080688 1794.45599365 C-477.49842512 1790.94784978 -475.80320372 1787.4510564 -474.1015625 1783.95703125 C-466.823883 1769.00325914 -459.68118793 1753.99832889 -452.72108459 1738.89335632 C-450.35893346 1733.76950131 -447.97958466 1728.65374867 -445.59765625 1723.5390625 C-422.47211249 1673.855496 -400.24058446 1623.78401896 -378.96252441 1573.28131104 C-378.06184676 1571.14658506 -377.15816729 1569.01316672 -376.25292969 1566.88037109 C-355.39837631 1517.73032077 -335.7487368 1467.98809887 -317 1418 C-316.65167114 1417.07213684 -316.30334229 1416.14427368 -315.94445801 1415.18829346 C-284.41198548 1331.14072688 -255.64595309 1246.07289556 -197 1036 C-196.61838715 1034.46258148 -196.61838715 1034.46258148 -196.22906494 1032.894104 C-172.85153239 938.66613943 -154.3463613 843.37002754 -174.8125 100.25 C-175.07922516 99.26165161 -175.34595032 98.27330322 -175.62075806 97.25500488 C-178.57390305 86.35751934 -181.67903874 75.53315201 -185.18159485 64.79815674 C-187 59.1958534 -187 59.1958534 -187 57 C-157.72700132 47.56143644 -128.38440682 38.36083295 -98.99582481 29.29003048 C-95.19623535 28.11717763 -91.39687046 26.94359905 -87.59765625 25.76953125 C-86.84028042 25.53549402 -86.08290459 25.30145679 -85.30257797 25.06032753 C-74.19713816 21.62683369 -63.10535513 18.1516988 -52.02246475 14.64612579 C-49.64661663 13.89479008 -47.27048512 13.14435772 -44.89425659 12.39422607 C-43.34453845 11.90492309 -41.79482527 11.41560438 -40.24511719 10.92626953 C-39.48865213 10.68741783 -38.73218708 10.44856613 -37.95279884 10.2024765 C-33.47909 8.78907385 -29.00759033 7.36892009 -24.53752804 5.94402981 C-21.78870307 5.06939785 -19.03802766 4.20070597 -16.28682137 3.33359718 C-14.3992396 2.7365022 -12.5140918 2.13173 -10.62901306 1.52677917 C-8.95676414 1.00124199 -8.95676414 1.00124199 -7.25073242 0.46508789 C-5.79324837 0.00169762 -5.79324837 0.00169762 -4.30632019 -0.47105408 C-2 -1 -2 -1 0 0 Z " fill="#073B4F" transform="translate(3568,895)"/>
</svg>
